<svg width="181" height="112" viewBox="0 0 181 112" fill="none" xmlns="http://www.w3.org/2000/svg">
    <path d="M39.8611 19.2132C39.8611 30.2115 30.9167 49.3856 19.9306 49.3856C8.94444 49.3856 1.23624e-06 30.1791 1.23624e-06 19.1483C0.207498 14 2.39636 9.13161 6.10833 5.56243C9.8203 1.99325 14.7676 5.78895e-07 19.9144 5.78895e-07C25.0611 5.78895e-07 30.0084 1.99325 33.7204 5.56243C37.4323 9.13161 39.6212 14 39.8287 19.1483L39.8611 19.2132Z" transform="translate(70.5695 3)" stroke="#95541B" stroke-width="5" stroke-linecap="round" stroke-linejoin="round"/>
    <path d="M4.94498e-07 41.0734C7.23803e-07 30.1801 4.32256 19.7329 12.0168 12.0301C19.711 4.32737 30.1465 -2.84575e-06 41.0278 -2.84575e-06C51.909 -2.84575e-06 62.3446 4.32737 70.0388 12.0301C77.733 19.7329 82.0555 30.1801 82.0555 41.0734" transform="translate(49.4722 67.4395)" stroke="#95541B" stroke-width="5" stroke-linecap="round" stroke-linejoin="round"/>
    <path d="M33.7037 16.8868C33.7037 26.1981 26.1528 42.8416 16.8519 42.8416C7.55093 42.8416 4.94498e-07 26.0683 4.94498e-07 16.8868C4.94498e-07 12.4082 1.77717 8.11293 4.94054 4.94604C8.10391 1.77914 12.3944 1.73267e-06 16.868 1.73267e-06C21.3417 1.73267e-06 25.6322 1.77914 28.7956 4.94604C31.9589 8.11293 33.7361 12.4082 33.7361 16.8868H33.7037Z" transform="translate(126.44 18.5312)" stroke="#95541B" stroke-width="5" stroke-linecap="round" stroke-linejoin="round"/>
    <path d="M4.45048e-06 7.04879C5.15521 3.14217 11.2971 0.753297 17.7346 0.150944C24.1722 -0.45141 30.6499 0.756662 36.4389 3.63924C42.228 6.52181 47.0987 10.9645 50.5029 16.4674C53.9072 21.9703 55.7099 28.3152 55.7083 34.7879" transform="translate(122.292 74.2119)" stroke="#95541B" stroke-width="5" stroke-linecap="round" stroke-linejoin="round"/>
    <path d="M0.0324081 16.8868C0.0324081 26.1981 7.58333 42.8416 16.8843 42.8416C26.1852 42.8416 33.7361 26.0683 33.7361 16.8868C33.7361 12.4082 31.9589 8.11293 28.7956 4.94604C25.6322 1.77914 21.3417 1.73267e-06 16.8681 1.73267e-06C12.3944 1.73267e-06 8.10391 1.77914 4.94054 4.94604C1.77717 8.11293 0 12.4082 0 16.8868H0.0324081Z" transform="translate(20.8241 18.5312)" stroke="#95541B" stroke-width="5" stroke-linecap="round" stroke-linejoin="round"/>
    <path d="M55.7083 7.04879C50.5531 3.14217 44.4112 0.753297 37.9737 0.150944C31.5361 -0.45141 25.0584 0.756662 19.2694 3.63924C13.4803 6.52181 8.60967 10.9645 5.20542 16.4674C1.80116 21.9703 -0.00158654 28.3152 1.04767e-06 34.7879" transform="translate(3 74.2119)" stroke="#95541B" stroke-width="5" stroke-linecap="round" stroke-linejoin="round"/>
</svg>
