<svg width="240" height="200" viewBox="0 0 240 200" fill="none" xmlns="http://www.w3.org/2000/svg">
    <rect width="240" height="200" rx="3" fill="url(#paint0_linear)"/>
    <path d="M19.168 89V79.7578H21.8975C22.8877 79.7578 23.6388 79.9631 24.1509 80.3735C24.6629 80.7798 24.9189 81.3807 24.9189 82.1763C24.9189 82.6545 24.7878 83.0713 24.5254 83.4268C24.2673 83.778 23.9118 84.0298 23.459 84.1821C23.9964 84.3006 24.4281 84.5651 24.7539 84.9756C25.084 85.3861 25.249 85.86 25.249 86.3975C25.249 87.2142 24.9845 87.8532 24.4556 88.3145C23.9308 88.7715 23.1987 89 22.2593 89H19.168ZM19.9487 84.5566V88.3398H22.291C22.9596 88.3398 23.4886 88.1706 23.8779 87.832C24.2715 87.4893 24.4683 87.0153 24.4683 86.4102C24.4683 85.8389 24.2799 85.3882 23.9033 85.0581C23.5309 84.7238 23.0146 84.5566 22.3545 84.5566H19.9487ZM19.9487 83.9028H22.0815C22.7332 83.8901 23.2368 83.7378 23.5923 83.4458C23.952 83.1496 24.1318 82.7201 24.1318 82.1572C24.1318 81.5648 23.9456 81.1289 23.5732 80.8496C23.2051 80.5661 22.6465 80.4243 21.8975 80.4243H19.9487V83.9028ZM31.2983 89C31.2222 88.7842 31.1735 88.4647 31.1523 88.0415C30.8857 88.3885 30.5451 88.6572 30.1304 88.8477C29.7199 89.0339 29.284 89.127 28.8228 89.127C28.1626 89.127 27.6273 88.9429 27.2168 88.5747C26.8105 88.2065 26.6074 87.741 26.6074 87.1782C26.6074 86.5096 26.8846 85.9806 27.439 85.5913C27.9976 85.202 28.7741 85.0073 29.7686 85.0073H31.146V84.2266C31.146 83.7357 30.9937 83.3506 30.689 83.0713C30.3885 82.7878 29.9484 82.646 29.3687 82.646C28.8397 82.646 28.4017 82.7814 28.0547 83.0522C27.7077 83.3231 27.5342 83.6489 27.5342 84.0298L26.7725 84.0234C26.7725 83.4775 27.0264 83.0057 27.5342 82.6079C28.042 82.2059 28.6662 82.0049 29.4067 82.0049C30.1727 82.0049 30.7757 82.1974 31.2158 82.5825C31.6602 82.9634 31.8887 83.4966 31.9014 84.1821V87.4321C31.9014 88.0965 31.9712 88.5938 32.1108 88.9238V89H31.2983ZM28.9116 88.4541C29.4194 88.4541 29.8722 88.3314 30.27 88.0859C30.672 87.8405 30.964 87.5125 31.146 87.1021V85.5913H29.7876C29.0301 85.5998 28.4377 85.7394 28.0103 86.0103C27.5828 86.2769 27.3691 86.645 27.3691 87.1147C27.3691 87.4998 27.5109 87.8193 27.7944 88.0732C28.0822 88.3271 28.4546 88.4541 28.9116 88.4541ZM34.7451 82.1318V88.3589H37.7983V82.1318H38.5601V88.3589H41.5879V82.1318H42.3496V89H33.9834V82.1318H34.7451ZM48.7671 82.1318H49.5288V89H48.7671V83.3569L45.0601 89H44.3047V82.1318H45.0601V87.7812L48.7671 82.1318ZM54.8101 89V82.1318H57.3301C58.2018 82.1318 58.8704 82.2884 59.3359 82.6016C59.8014 82.9105 60.0342 83.3654 60.0342 83.9663C60.0342 84.3091 59.9305 84.6159 59.7231 84.8867C59.5158 85.1533 59.2132 85.348 58.8154 85.4707C59.264 85.5553 59.6237 85.7479 59.8945 86.0483C60.1696 86.3488 60.3071 86.6979 60.3071 87.0957C60.3071 87.7008 60.0828 88.1706 59.6343 88.5049C59.1899 88.835 58.5594 89 57.7427 89H54.8101ZM55.5654 85.8389V88.3652H57.7681C58.3394 88.3652 58.7795 88.2552 59.0884 88.0352C59.3973 87.8151 59.5518 87.4977 59.5518 87.083C59.5518 86.7021 59.3973 86.3996 59.0884 86.1753C58.7795 85.951 58.3394 85.8389 57.7681 85.8389H55.5654ZM55.5654 85.2041H57.4888C58.6821 85.1872 59.2788 84.7809 59.2788 83.9854C59.2788 83.5664 59.1138 83.2617 58.7837 83.0713C58.4578 82.8766 57.9733 82.7793 57.3301 82.7793H55.5654V85.2041ZM66.3374 89C66.2612 88.7842 66.2126 88.4647 66.1914 88.0415C65.9248 88.3885 65.5841 88.6572 65.1694 88.8477C64.759 89.0339 64.3231 89.127 63.8618 89.127C63.2017 89.127 62.6663 88.9429 62.2559 88.5747C61.8496 88.2065 61.6465 87.741 61.6465 87.1782C61.6465 86.5096 61.9237 85.9806 62.478 85.5913C63.0366 85.202 63.8132 85.0073 64.8076 85.0073H66.1851V84.2266C66.1851 83.7357 66.0327 83.3506 65.728 83.0713C65.4276 82.7878 64.9875 82.646 64.4077 82.646C63.8787 82.646 63.4408 82.7814 63.0938 83.0522C62.7467 83.3231 62.5732 83.6489 62.5732 84.0298L61.8115 84.0234C61.8115 83.4775 62.0654 83.0057 62.5732 82.6079C63.0811 82.2059 63.7052 82.0049 64.4458 82.0049C65.2118 82.0049 65.8148 82.1974 66.2549 82.5825C66.6992 82.9634 66.9277 83.4966 66.9404 84.1821V87.4321C66.9404 88.0965 67.0103 88.5938 67.1499 88.9238V89H66.3374ZM63.9507 88.4541C64.4585 88.4541 64.9113 88.3314 65.3091 88.0859C65.7111 87.8405 66.0031 87.5125 66.1851 87.1021V85.5913H64.8267C64.0692 85.5998 63.4767 85.7394 63.0493 86.0103C62.6219 86.2769 62.4082 86.645 62.4082 87.1147C62.4082 87.4998 62.55 87.8193 62.8335 88.0732C63.1213 88.3271 63.4937 88.4541 63.9507 88.4541ZM70.8379 85.8516H69.7842V89H69.0161V82.1318H69.7842V85.1787H70.8252L73.3452 82.1318H74.3037L71.4854 85.4644L74.6147 89H73.6118L70.8379 85.8516ZM80.0483 89C79.9722 88.7842 79.9235 88.4647 79.9023 88.0415C79.6357 88.3885 79.2951 88.6572 78.8804 88.8477C78.4699 89.0339 78.034 89.127 77.5728 89.127C76.9126 89.127 76.3773 88.9429 75.9668 88.5747C75.5605 88.2065 75.3574 87.741 75.3574 87.1782C75.3574 86.5096 75.6346 85.9806 76.189 85.5913C76.7476 85.202 77.5241 85.0073 78.5186 85.0073H79.896V84.2266C79.896 83.7357 79.7437 83.3506 79.439 83.0713C79.1385 82.7878 78.6984 82.646 78.1187 82.646C77.5897 82.646 77.1517 82.7814 76.8047 83.0522C76.4577 83.3231 76.2842 83.6489 76.2842 84.0298L75.5225 84.0234C75.5225 83.4775 75.7764 83.0057 76.2842 82.6079C76.792 82.2059 77.4162 82.0049 78.1567 82.0049C78.9227 82.0049 79.5257 82.1974 79.9658 82.5825C80.4102 82.9634 80.6387 83.4966 80.6514 84.1821V87.4321C80.6514 88.0965 80.7212 88.5938 80.8608 88.9238V89H80.0483ZM77.6616 88.4541C78.1694 88.4541 78.6222 88.3314 79.02 88.0859C79.422 87.8405 79.714 87.5125 79.896 87.1021V85.5913H78.5376C77.7801 85.5998 77.1877 85.7394 76.7603 86.0103C76.3328 86.2769 76.1191 86.645 76.1191 87.1147C76.1191 87.4998 76.2609 87.8193 76.5444 88.0732C76.8322 88.3271 77.2046 88.4541 77.6616 88.4541ZM87.9575 89H87.1958V85.8516H83.4951V89H82.7334V82.1318H83.4951V85.2104H87.1958V82.1318H87.9575V89ZM92.5342 88.4858C93.0632 88.4858 93.5054 88.3377 93.8608 88.0415C94.2205 87.741 94.4152 87.3538 94.4448 86.8799H95.1748C95.1536 87.2988 95.0225 87.6818 94.7812 88.0288C94.54 88.3716 94.2184 88.6403 93.8164 88.835C93.4186 89.0296 92.9912 89.127 92.5342 89.127C91.6328 89.127 90.9176 88.8138 90.3887 88.1875C89.8639 87.5612 89.6016 86.7191 89.6016 85.6611V85.4326C89.6016 84.7555 89.7201 84.1567 89.957 83.6362C90.194 83.1157 90.5326 82.7137 90.9727 82.4302C91.417 82.1466 91.9354 82.0049 92.5278 82.0049C93.2811 82.0049 93.901 82.2292 94.3877 82.6777C94.8786 83.1263 95.141 83.7166 95.1748 84.4487H94.4448C94.411 83.9113 94.2163 83.4775 93.8608 83.1475C93.5096 82.8174 93.0653 82.6523 92.5278 82.6523C91.8423 82.6523 91.3091 82.8999 90.9282 83.395C90.5516 83.8901 90.3633 84.5841 90.3633 85.4771V85.6992C90.3633 86.5752 90.5516 87.2586 90.9282 87.7495C91.3091 88.2404 91.8444 88.4858 92.5342 88.4858ZM101.211 82.1318H101.973V89H101.211V83.3569L97.5044 89H96.749V82.1318H97.5044V87.7812L101.211 82.1318ZM108.524 82.1318H109.286V89H108.524V83.3569L104.817 89H104.062V82.1318H104.817V87.7812L108.524 82.1318ZM119.759 89H118.998V85.8516H115.297V89H114.535V82.1318H115.297V85.2104H118.998V82.1318H119.759V89ZM126.132 89C126.056 88.7842 126.007 88.4647 125.986 88.0415C125.72 88.3885 125.379 88.6572 124.964 88.8477C124.554 89.0339 124.118 89.127 123.657 89.127C122.997 89.127 122.461 88.9429 122.051 88.5747C121.645 88.2065 121.441 87.741 121.441 87.1782C121.441 86.5096 121.719 85.9806 122.273 85.5913C122.832 85.202 123.608 85.0073 124.603 85.0073H125.98V84.2266C125.98 83.7357 125.828 83.3506 125.523 83.0713C125.222 82.7878 124.782 82.646 124.203 82.646C123.674 82.646 123.236 82.7814 122.889 83.0522C122.542 83.3231 122.368 83.6489 122.368 84.0298L121.606 84.0234C121.606 83.4775 121.86 83.0057 122.368 82.6079C122.876 82.2059 123.5 82.0049 124.241 82.0049C125.007 82.0049 125.61 82.1974 126.05 82.5825C126.494 82.9634 126.723 83.4966 126.735 84.1821V87.4321C126.735 88.0965 126.805 88.5938 126.945 88.9238V89H126.132ZM123.746 88.4541C124.253 88.4541 124.706 88.3314 125.104 88.0859C125.506 87.8405 125.798 87.5125 125.98 87.1021V85.5913H124.622C123.864 85.5998 123.272 85.7394 122.844 86.0103C122.417 86.2769 122.203 86.645 122.203 87.1147C122.203 87.4998 122.345 87.8193 122.628 88.0732C122.916 88.3271 123.289 88.4541 123.746 88.4541ZM136.206 82.7856H132.734V89H131.972V82.1318H136.206V82.7856ZM142.439 82.1318V89H141.678V82.7856H138.866L138.745 85.3564C138.694 86.3086 138.599 87.0365 138.459 87.54C138.32 88.0394 138.112 88.4076 137.837 88.6445C137.562 88.8815 137.196 89 136.739 89H136.447V88.3271L136.682 88.3145C137.118 88.306 137.431 88.0944 137.622 87.6797C137.812 87.265 137.937 86.5244 137.996 85.458L138.136 82.1318H142.439ZM148.819 89C148.743 88.7842 148.694 88.4647 148.673 88.0415C148.406 88.3885 148.066 88.6572 147.651 88.8477C147.24 89.0339 146.805 89.127 146.343 89.127C145.683 89.127 145.148 88.9429 144.737 88.5747C144.331 88.2065 144.128 87.741 144.128 87.1782C144.128 86.5096 144.405 85.9806 144.959 85.5913C145.518 85.202 146.295 85.0073 147.289 85.0073H148.667V84.2266C148.667 83.7357 148.514 83.3506 148.209 83.0713C147.909 82.7878 147.469 82.646 146.889 82.646C146.36 82.646 145.922 82.7814 145.575 83.0522C145.228 83.3231 145.055 83.6489 145.055 84.0298L144.293 84.0234C144.293 83.4775 144.547 83.0057 145.055 82.6079C145.562 82.2059 146.187 82.0049 146.927 82.0049C147.693 82.0049 148.296 82.1974 148.736 82.5825C149.181 82.9634 149.409 83.4966 149.422 84.1821V87.4321C149.422 88.0965 149.492 88.5938 149.631 88.9238V89H148.819ZM146.432 88.4541C146.94 88.4541 147.393 88.3314 147.791 88.0859C148.193 87.8405 148.485 87.5125 148.667 87.1021V85.5913H147.308C146.551 85.5998 145.958 85.7394 145.531 86.0103C145.103 86.2769 144.89 86.645 144.89 87.1147C144.89 87.4998 145.031 87.8193 145.315 88.0732C145.603 88.3271 145.975 88.4541 146.432 88.4541ZM151.536 89V82.1318H154.056C154.927 82.1318 155.596 82.2884 156.062 82.6016C156.527 82.9105 156.76 83.3654 156.76 83.9663C156.76 84.3091 156.656 84.6159 156.449 84.8867C156.241 85.1533 155.939 85.348 155.541 85.4707C155.99 85.5553 156.349 85.7479 156.62 86.0483C156.895 86.3488 157.033 86.6979 157.033 87.0957C157.033 87.7008 156.808 88.1706 156.36 88.5049C155.916 88.835 155.285 89 154.468 89H151.536ZM152.291 85.8389V88.3652H154.494C155.065 88.3652 155.505 88.2552 155.814 88.0352C156.123 87.8151 156.277 87.4977 156.277 87.083C156.277 86.7021 156.123 86.3996 155.814 86.1753C155.505 85.951 155.065 85.8389 154.494 85.8389H152.291ZM152.291 85.2041H154.214C155.408 85.1872 156.004 84.7809 156.004 83.9854C156.004 83.5664 155.839 83.2617 155.509 83.0713C155.183 82.8766 154.699 82.7793 154.056 82.7793H152.291V85.2041ZM164.002 89H163.241V85.8516H159.54V89H158.778V82.1318H159.54V85.2104H163.241V82.1318H164.002V89ZM165.621 85.4644C165.621 84.8042 165.748 84.2096 166.002 83.6807C166.26 83.1517 166.622 82.7412 167.087 82.4492C167.557 82.153 168.088 82.0049 168.681 82.0049C169.595 82.0049 170.335 82.3265 170.902 82.9697C171.469 83.6087 171.753 84.4572 171.753 85.5151V85.6738C171.753 86.3382 171.624 86.937 171.366 87.4702C171.112 87.9992 170.752 88.4076 170.287 88.6953C169.821 88.9831 169.29 89.127 168.693 89.127C167.784 89.127 167.043 88.8075 166.472 88.1685C165.905 87.5252 165.621 86.6746 165.621 85.6167V85.4644ZM166.383 85.6738C166.383 86.4948 166.594 87.1698 167.018 87.6987C167.445 88.2235 168.004 88.4858 168.693 88.4858C169.379 88.4858 169.933 88.2235 170.356 87.6987C170.784 87.1698 170.998 86.4736 170.998 85.6104V85.4644C170.998 84.9396 170.9 84.4593 170.706 84.0234C170.511 83.5876 170.238 83.2511 169.887 83.0142C169.535 82.7729 169.133 82.6523 168.681 82.6523C168.004 82.6523 167.451 82.9189 167.024 83.4521C166.597 83.9811 166.383 84.6751 166.383 85.5342V85.6738ZM177.84 82.1318H178.602V89H177.84V83.3569L174.133 89H173.378V82.1318H174.133V87.7812L177.84 82.1318ZM177.802 79.6562C177.802 80.1429 177.635 80.5365 177.301 80.8369C176.971 81.1374 176.526 81.2876 175.968 81.2876C175.418 81.2876 174.973 81.1395 174.635 80.8433C174.3 80.5428 174.133 80.1471 174.133 79.6562H174.781C174.781 80.0075 174.884 80.2762 175.092 80.4624C175.303 80.6486 175.595 80.7417 175.968 80.7417C176.34 80.7417 176.63 80.6444 176.837 80.4497C177.049 80.255 177.155 79.9906 177.155 79.6562H177.802ZM21.5293 106.486C22.0583 106.486 22.5005 106.338 22.856 106.042C23.2157 105.741 23.4103 105.354 23.4399 104.88H24.1699C24.1488 105.299 24.0176 105.682 23.7764 106.029C23.5352 106.372 23.2135 106.64 22.8115 106.835C22.4137 107.03 21.9863 107.127 21.5293 107.127C20.6279 107.127 19.9128 106.814 19.3838 106.188C18.859 105.561 18.5967 104.719 18.5967 103.661V103.433C18.5967 102.756 18.7152 102.157 18.9521 101.636C19.1891 101.116 19.5277 100.714 19.9678 100.43C20.4121 100.147 20.9305 100.005 21.5229 100.005C22.2762 100.005 22.8962 100.229 23.3828 100.678C23.8737 101.126 24.1361 101.717 24.1699 102.449H23.4399C23.4061 101.911 23.2114 101.478 22.856 101.147C22.5047 100.817 22.0604 100.652 21.5229 100.652C20.8374 100.652 20.3042 100.9 19.9233 101.395C19.5467 101.89 19.3584 102.584 19.3584 103.477V103.699C19.3584 104.575 19.5467 105.259 19.9233 105.75C20.3042 106.24 20.8395 106.486 21.5293 106.486ZM30.6255 100.779H28.1245V107H27.3628V100.779H24.957V100.132H30.6255V100.779ZM37.3984 103.636C37.3984 104.706 37.1615 105.557 36.6875 106.188C36.2135 106.814 35.5788 107.127 34.7832 107.127C33.8438 107.127 33.1243 106.797 32.625 106.137V109.641H31.8696V100.132H32.5742L32.6123 101.103C33.1074 100.371 33.8247 100.005 34.7642 100.005C35.5851 100.005 36.2284 100.316 36.6938 100.938C37.1636 101.56 37.3984 102.423 37.3984 103.528V103.636ZM36.6367 103.502C36.6367 102.626 36.4569 101.935 36.0972 101.427C35.7375 100.919 35.236 100.665 34.5928 100.665C34.1273 100.665 33.7274 100.777 33.3931 101.001C33.0588 101.226 32.8027 101.552 32.625 101.979V105.273C32.807 105.667 33.0672 105.967 33.4058 106.175C33.7443 106.382 34.1442 106.486 34.6055 106.486C35.2445 106.486 35.7417 106.232 36.0972 105.724C36.4569 105.212 36.6367 104.472 36.6367 103.502ZM43.4224 107C43.3462 106.784 43.2975 106.465 43.2764 106.042C43.0098 106.389 42.6691 106.657 42.2544 106.848C41.8439 107.034 41.408 107.127 40.9468 107.127C40.2866 107.127 39.7513 106.943 39.3408 106.575C38.9346 106.207 38.7314 105.741 38.7314 105.178C38.7314 104.51 39.0086 103.981 39.563 103.591C40.1216 103.202 40.8981 103.007 41.8926 103.007H43.27V102.227C43.27 101.736 43.1177 101.351 42.813 101.071C42.5125 100.788 42.0724 100.646 41.4927 100.646C40.9637 100.646 40.5257 100.781 40.1787 101.052C39.8317 101.323 39.6582 101.649 39.6582 102.03L38.8965 102.023C38.8965 101.478 39.1504 101.006 39.6582 100.608C40.166 100.206 40.7902 100.005 41.5308 100.005C42.2967 100.005 42.8997 100.197 43.3398 100.583C43.7842 100.963 44.0127 101.497 44.0254 102.182V105.432C44.0254 106.097 44.0952 106.594 44.2349 106.924V107H43.4224ZM41.0356 106.454C41.5435 106.454 41.9963 106.331 42.394 106.086C42.7961 105.84 43.0881 105.513 43.27 105.102V103.591H41.9116C41.1541 103.6 40.5617 103.739 40.1343 104.01C39.7069 104.277 39.4932 104.645 39.4932 105.115C39.4932 105.5 39.6349 105.819 39.9185 106.073C40.2062 106.327 40.5786 106.454 41.0356 106.454ZM51.3315 107H50.5698V103.852H46.8691V107H46.1074V100.132H46.8691V103.21H50.5698V100.132H51.3315V107ZM57.8823 100.132H58.644V107H57.8823V101.357L54.1753 107H53.4199V100.132H54.1753V105.781L57.8823 100.132ZM60.7324 100.132H61.4941V106.359H65.1948V100.132H65.9565V106.359H66.6548L66.5977 109.038H65.8994V107H60.7324V100.132ZM70.7427 107.127C70.1587 107.127 69.6297 106.983 69.1558 106.695C68.686 106.408 68.32 106.008 68.0576 105.496C67.7952 104.979 67.6641 104.402 67.6641 103.763V103.49C67.6641 102.83 67.791 102.235 68.0449 101.706C68.3031 101.177 68.6606 100.762 69.1177 100.462C69.5747 100.157 70.0698 100.005 70.603 100.005C71.4367 100.005 72.0968 100.291 72.5835 100.862C73.0744 101.429 73.3198 102.205 73.3198 103.191V103.617H68.4194V103.763C68.4194 104.541 68.6416 105.191 69.0859 105.711C69.5345 106.228 70.0973 106.486 70.7744 106.486C71.1807 106.486 71.5382 106.412 71.8472 106.264C72.1603 106.116 72.4438 105.879 72.6978 105.553L73.1738 105.915C72.6152 106.723 71.8049 107.127 70.7427 107.127ZM70.603 100.652C70.0317 100.652 69.5493 100.862 69.1558 101.281C68.7664 101.7 68.5295 102.263 68.4448 102.969H72.5645V102.887C72.5433 102.227 72.355 101.689 71.9995 101.274C71.644 100.86 71.1785 100.652 70.603 100.652ZM82.4731 100.132H83.2349V107H82.4731V101.357L78.7661 107H78.0107V100.132H78.7661V105.781L82.4731 100.132ZM92.769 107C92.6929 106.784 92.6442 106.465 92.623 106.042C92.3564 106.389 92.0158 106.657 91.6011 106.848C91.1906 107.034 90.7547 107.127 90.2935 107.127C89.6333 107.127 89.098 106.943 88.6875 106.575C88.2812 106.207 88.0781 105.741 88.0781 105.178C88.0781 104.51 88.3553 103.981 88.9097 103.591C89.4683 103.202 90.2448 103.007 91.2393 103.007H92.6167V102.227C92.6167 101.736 92.4644 101.351 92.1597 101.071C91.8592 100.788 91.4191 100.646 90.8394 100.646C90.3104 100.646 89.8724 100.781 89.5254 101.052C89.1784 101.323 89.0049 101.649 89.0049 102.03L88.2432 102.023C88.2432 101.478 88.4971 101.006 89.0049 100.608C89.5127 100.206 90.1369 100.005 90.8774 100.005C91.6434 100.005 92.2464 100.197 92.6865 100.583C93.1309 100.963 93.3594 101.497 93.3721 102.182V105.432C93.3721 106.097 93.4419 106.594 93.5815 106.924V107H92.769ZM90.3823 106.454C90.8901 106.454 91.3429 106.331 91.7407 106.086C92.1427 105.84 92.4347 105.513 92.6167 105.102V103.591H91.2583C90.5008 103.6 89.9084 103.739 89.481 104.01C89.0535 104.277 88.8398 104.645 88.8398 105.115C88.8398 105.5 88.9816 105.819 89.2651 106.073C89.5529 106.327 89.9253 106.454 90.3823 106.454ZM95.4858 107V100.132H98.0059C98.8776 100.132 99.5462 100.288 100.012 100.602C100.477 100.91 100.71 101.365 100.71 101.966C100.71 102.309 100.606 102.616 100.399 102.887C100.192 103.153 99.889 103.348 99.4912 103.471C99.9398 103.555 100.299 103.748 100.57 104.048C100.845 104.349 100.983 104.698 100.983 105.096C100.983 105.701 100.759 106.171 100.31 106.505C99.8657 106.835 99.2352 107 98.4185 107H95.4858ZM96.2412 103.839V106.365H98.4438C99.0151 106.365 99.4552 106.255 99.7642 106.035C100.073 105.815 100.228 105.498 100.228 105.083C100.228 104.702 100.073 104.4 99.7642 104.175C99.4552 103.951 99.0151 103.839 98.4438 103.839H96.2412ZM96.2412 103.204H98.1646C99.3579 103.187 99.9546 102.781 99.9546 101.985C99.9546 101.566 99.7896 101.262 99.4595 101.071C99.1336 100.877 98.6491 100.779 98.0059 100.779H96.2412V103.204ZM107.534 100.779H105.033V107H104.271V100.779H101.865V100.132H107.534V100.779ZM108.099 103.464C108.099 102.804 108.226 102.21 108.479 101.681C108.738 101.152 109.099 100.741 109.565 100.449C110.035 100.153 110.566 100.005 111.158 100.005C112.072 100.005 112.813 100.326 113.38 100.97C113.947 101.609 114.23 102.457 114.23 103.515V103.674C114.23 104.338 114.101 104.937 113.843 105.47C113.589 105.999 113.23 106.408 112.764 106.695C112.299 106.983 111.768 107.127 111.171 107.127C110.261 107.127 109.521 106.807 108.949 106.168C108.382 105.525 108.099 104.675 108.099 103.617V103.464ZM108.86 103.674C108.86 104.495 109.072 105.17 109.495 105.699C109.923 106.223 110.481 106.486 111.171 106.486C111.856 106.486 112.411 106.223 112.834 105.699C113.261 105.17 113.475 104.474 113.475 103.61V103.464C113.475 102.94 113.378 102.459 113.183 102.023C112.988 101.588 112.715 101.251 112.364 101.014C112.013 100.773 111.611 100.652 111.158 100.652C110.481 100.652 109.929 100.919 109.501 101.452C109.074 101.981 108.86 102.675 108.86 103.534V103.674ZM119.607 105.972L122.336 100.132H123.276V107H122.514V101.363L119.874 107H119.334L116.643 101.236V107H115.887V100.132H116.884L119.607 105.972ZM129.649 107C129.573 106.784 129.524 106.465 129.503 106.042C129.236 106.389 128.896 106.657 128.481 106.848C128.07 107.034 127.635 107.127 127.173 107.127C126.513 107.127 125.978 106.943 125.567 106.575C125.161 106.207 124.958 105.741 124.958 105.178C124.958 104.51 125.235 103.981 125.79 103.591C126.348 103.202 127.125 103.007 128.119 103.007H129.497V102.227C129.497 101.736 129.344 101.351 129.04 101.071C128.739 100.788 128.299 100.646 127.719 100.646C127.19 100.646 126.752 100.781 126.405 101.052C126.058 101.323 125.885 101.649 125.885 102.03L125.123 102.023C125.123 101.478 125.377 101.006 125.885 100.608C126.393 100.206 127.017 100.005 127.757 100.005C128.523 100.005 129.126 100.197 129.566 100.583C130.011 100.963 130.239 101.497 130.252 102.182V105.432C130.252 106.097 130.322 106.594 130.461 106.924V107H129.649ZM127.262 106.454C127.77 106.454 128.223 106.331 128.621 106.086C129.023 105.84 129.315 105.513 129.497 105.102V103.591H128.138C127.381 103.6 126.788 103.739 126.361 104.01C125.933 104.277 125.72 104.645 125.72 105.115C125.72 105.5 125.861 105.819 126.145 106.073C126.433 106.327 126.805 106.454 127.262 106.454ZM137.114 100.779H134.613V107H133.851V100.779H131.445V100.132H137.114V100.779ZM142.877 100.132H143.639V107H142.877V101.357L139.17 107H138.415V100.132H139.17V105.781L142.877 100.132ZM150.564 107H149.803V104.112C149.176 104.34 148.578 104.455 148.006 104.455C147.097 104.455 146.436 104.256 146.026 103.858C145.615 103.456 145.402 102.832 145.385 101.985V100.132H146.14V101.947C146.149 102.603 146.292 103.077 146.572 103.369C146.855 103.657 147.333 103.801 148.006 103.801C148.62 103.784 149.219 103.674 149.803 103.471V100.132H150.564V107ZM155.255 107.127C154.671 107.127 154.142 106.983 153.668 106.695C153.199 106.408 152.833 106.008 152.57 105.496C152.308 104.979 152.177 104.402 152.177 103.763V103.49C152.177 102.83 152.304 102.235 152.558 101.706C152.816 101.177 153.173 100.762 153.63 100.462C154.087 100.157 154.583 100.005 155.116 100.005C155.949 100.005 156.61 100.291 157.096 100.862C157.587 101.429 157.833 102.205 157.833 103.191V103.617H152.932V103.763C152.932 104.541 153.154 105.191 153.599 105.711C154.047 106.228 154.61 106.486 155.287 106.486C155.693 106.486 156.051 106.412 156.36 106.264C156.673 106.116 156.957 105.879 157.21 105.553L157.687 105.915C157.128 106.723 156.318 107.127 155.255 107.127ZM155.116 100.652C154.544 100.652 154.062 100.862 153.668 101.281C153.279 101.7 153.042 102.263 152.958 102.969H157.077V102.887C157.056 102.227 156.868 101.689 156.512 101.274C156.157 100.86 155.691 100.652 155.116 100.652ZM161.851 106.486C162.38 106.486 162.822 106.338 163.177 106.042C163.537 105.741 163.732 105.354 163.761 104.88H164.491C164.47 105.299 164.339 105.682 164.098 106.029C163.856 106.372 163.535 106.64 163.133 106.835C162.735 107.03 162.308 107.127 161.851 107.127C160.949 107.127 160.234 106.814 159.705 106.188C159.18 105.561 158.918 104.719 158.918 103.661V103.433C158.918 102.756 159.036 102.157 159.273 101.636C159.51 101.116 159.849 100.714 160.289 100.43C160.733 100.147 161.252 100.005 161.844 100.005C162.597 100.005 163.217 100.229 163.704 100.678C164.195 101.126 164.457 101.717 164.491 102.449H163.761C163.727 101.911 163.533 101.478 163.177 101.147C162.826 100.817 162.382 100.652 161.844 100.652C161.159 100.652 160.625 100.9 160.245 101.395C159.868 101.89 159.68 102.584 159.68 103.477V103.699C159.68 104.575 159.868 105.259 160.245 105.75C160.625 106.24 161.161 106.486 161.851 106.486ZM167.881 103.852H166.827V107H166.059V100.132H166.827V103.179H167.868L170.388 100.132H171.347L168.528 103.464L171.658 107H170.655L167.881 103.852ZM172.197 103.464C172.197 102.804 172.324 102.21 172.578 101.681C172.836 101.152 173.198 100.741 173.664 100.449C174.133 100.153 174.664 100.005 175.257 100.005C176.171 100.005 176.911 100.326 177.479 100.97C178.046 101.609 178.329 102.457 178.329 103.515V103.674C178.329 104.338 178.2 104.937 177.942 105.47C177.688 105.999 177.328 106.408 176.863 106.695C176.397 106.983 175.866 107.127 175.27 107.127C174.36 107.127 173.619 106.807 173.048 106.168C172.481 105.525 172.197 104.675 172.197 103.617V103.464ZM172.959 103.674C172.959 104.495 173.171 105.17 173.594 105.699C174.021 106.223 174.58 106.486 175.27 106.486C175.955 106.486 176.509 106.223 176.933 105.699C177.36 105.17 177.574 104.474 177.574 103.61V103.464C177.574 102.94 177.476 102.459 177.282 102.023C177.087 101.588 176.814 101.251 176.463 101.014C176.112 100.773 175.71 100.652 175.257 100.652C174.58 100.652 174.028 100.919 173.6 101.452C173.173 101.981 172.959 102.675 172.959 103.534V103.674ZM182.563 107.127C181.979 107.127 181.45 106.983 180.976 106.695C180.506 106.408 180.14 106.008 179.878 105.496C179.616 104.979 179.484 104.402 179.484 103.763V103.49C179.484 102.83 179.611 102.235 179.865 101.706C180.123 101.177 180.481 100.762 180.938 100.462C181.395 100.157 181.89 100.005 182.423 100.005C183.257 100.005 183.917 100.291 184.404 100.862C184.895 101.429 185.14 102.205 185.14 103.191V103.617H180.24V103.763C180.24 104.541 180.462 105.191 180.906 105.711C181.355 106.228 181.918 106.486 182.595 106.486C183.001 106.486 183.359 106.412 183.667 106.264C183.981 106.116 184.264 105.879 184.518 105.553L184.994 105.915C184.436 106.723 183.625 107.127 182.563 107.127ZM182.423 100.652C181.852 100.652 181.37 100.862 180.976 101.281C180.587 101.7 180.35 102.263 180.265 102.969H184.385V102.887C184.364 102.227 184.175 101.689 183.82 101.274C183.464 100.86 182.999 100.652 182.423 100.652ZM24.2651 126H23.5034V119.786H19.8027V126H19.041V119.132H24.2651V126ZM25.8838 122.464C25.8838 121.804 26.0107 121.21 26.2646 120.681C26.5228 120.152 26.8846 119.741 27.3501 119.449C27.8198 119.153 28.3509 119.005 28.9434 119.005C29.8574 119.005 30.598 119.326 31.165 119.97C31.7321 120.609 32.0156 121.457 32.0156 122.515V122.674C32.0156 123.338 31.8866 123.937 31.6284 124.47C31.3745 124.999 31.0148 125.408 30.5493 125.695C30.0838 125.983 29.5527 126.127 28.9561 126.127C28.0462 126.127 27.3057 125.807 26.7344 125.168C26.1673 124.525 25.8838 123.675 25.8838 122.617V122.464ZM26.6455 122.674C26.6455 123.495 26.8571 124.17 27.2803 124.699C27.7077 125.223 28.2663 125.486 28.9561 125.486C29.6416 125.486 30.196 125.223 30.6191 124.699C31.0465 124.17 31.2603 123.474 31.2603 122.61V122.464C31.2603 121.94 31.1629 121.459 30.9683 121.023C30.7736 120.588 30.5007 120.251 30.1494 120.014C29.7982 119.773 29.3962 119.652 28.9434 119.652C28.2663 119.652 27.714 119.919 27.2866 120.452C26.8592 120.981 26.6455 121.675 26.6455 122.534V122.674ZM32.9741 125.359L33.3105 124.921C33.8438 124.197 34.1506 123.139 34.231 121.747L34.3516 119.132H38.4077V125.359H39.1187V128.019H38.3633V126H33.2026V128.019H32.4727L32.479 125.359H32.9741ZM33.8501 125.359H37.646V119.843H35.0752L34.9927 121.626C34.9165 123.264 34.5356 124.508 33.8501 125.359ZM45.8599 126H45.0981V122.852H41.3975V126H40.6357V119.132H41.3975V122.21H45.0981V119.132H45.8599V126ZM52.9058 119.132V126H52.144V123.232H50.0112L48.3354 126H47.4976L49.2241 123.137C48.7544 123.014 48.3883 122.778 48.126 122.426C47.8678 122.075 47.7388 121.66 47.7388 121.182C47.7388 120.56 47.9609 120.063 48.4053 119.69C48.8538 119.318 49.459 119.132 50.2207 119.132H52.9058ZM48.5005 121.195C48.5005 121.597 48.6274 121.927 48.8813 122.185C49.1395 122.443 49.4971 122.576 49.9541 122.585H52.144V119.779H50.2017C49.6727 119.779 49.2559 119.906 48.9512 120.16C48.6507 120.414 48.5005 120.759 48.5005 121.195ZM59.8882 119.779H57.3872V126H56.6255V119.779H54.2197V119.132H59.8882V119.779ZM65.6519 119.132H66.4136V126H65.6519V120.357L61.9448 126H61.1895V119.132H61.9448V124.781L65.6519 119.132ZM71.1108 126.127C70.5269 126.127 69.9979 125.983 69.5239 125.695C69.0542 125.408 68.6882 125.008 68.4258 124.496C68.1634 123.979 68.0322 123.402 68.0322 122.763V122.49C68.0322 121.83 68.1592 121.235 68.4131 120.706C68.6712 120.177 69.0288 119.762 69.4858 119.462C69.9429 119.157 70.438 119.005 70.9712 119.005C71.8049 119.005 72.465 119.291 72.9517 119.862C73.4425 120.429 73.688 121.205 73.688 122.191V122.617H68.7876V122.763C68.7876 123.541 69.0098 124.191 69.4541 124.711C69.9027 125.228 70.4655 125.486 71.1426 125.486C71.5488 125.486 71.9064 125.412 72.2153 125.264C72.5285 125.116 72.812 124.879 73.0659 124.553L73.542 124.915C72.9834 125.723 72.173 126.127 71.1108 126.127ZM70.9712 119.652C70.3999 119.652 69.9175 119.862 69.5239 120.281C69.1346 120.7 68.8976 121.263 68.813 121.969H72.9326V121.887C72.9115 121.227 72.7231 120.689 72.3677 120.274C72.0122 119.86 71.5467 119.652 70.9712 119.652ZM78.4106 126V119.132H80.9307C81.8024 119.132 82.471 119.288 82.9365 119.602C83.402 119.91 83.6348 120.365 83.6348 120.966C83.6348 121.309 83.5311 121.616 83.3237 121.887C83.1164 122.153 82.8138 122.348 82.416 122.471C82.8646 122.555 83.2243 122.748 83.4951 123.048C83.7702 123.349 83.9077 123.698 83.9077 124.096C83.9077 124.701 83.6834 125.171 83.2349 125.505C82.7905 125.835 82.16 126 81.3433 126H78.4106ZM79.166 122.839V125.365H81.3687C81.9399 125.365 82.38 125.255 82.689 125.035C82.9979 124.815 83.1523 124.498 83.1523 124.083C83.1523 123.702 82.9979 123.4 82.689 123.175C82.38 122.951 81.9399 122.839 81.3687 122.839H79.166ZM79.166 122.204H81.0894C82.2827 122.187 82.8794 121.781 82.8794 120.985C82.8794 120.566 82.7144 120.262 82.3843 120.071C82.0584 119.877 81.5739 119.779 80.9307 119.779H79.166V122.204ZM88.1416 125.486C88.6706 125.486 89.1128 125.338 89.4683 125.042C89.828 124.741 90.0226 124.354 90.0522 123.88H90.7822C90.7611 124.299 90.6299 124.682 90.3887 125.029C90.1475 125.372 89.8258 125.64 89.4238 125.835C89.026 126.03 88.5986 126.127 88.1416 126.127C87.2402 126.127 86.5251 125.814 85.9961 125.188C85.4714 124.561 85.209 123.719 85.209 122.661V122.433C85.209 121.756 85.3275 121.157 85.5645 120.636C85.8014 120.116 86.14 119.714 86.5801 119.43C87.0244 119.147 87.5428 119.005 88.1353 119.005C88.8885 119.005 89.5085 119.229 89.9951 119.678C90.486 120.126 90.7484 120.717 90.7822 121.449H90.0522C90.0184 120.911 89.8237 120.478 89.4683 120.147C89.117 119.817 88.6727 119.652 88.1353 119.652C87.4497 119.652 86.9165 119.9 86.5356 120.395C86.159 120.89 85.9707 121.584 85.9707 122.477V122.699C85.9707 123.575 86.159 124.259 86.5356 124.75C86.9165 125.24 87.4518 125.486 88.1416 125.486ZM94.9653 126.127C94.3813 126.127 93.8524 125.983 93.3784 125.695C92.9087 125.408 92.5426 125.008 92.2803 124.496C92.0179 123.979 91.8867 123.402 91.8867 122.763V122.49C91.8867 121.83 92.0137 121.235 92.2676 120.706C92.5257 120.177 92.8833 119.762 93.3403 119.462C93.7974 119.157 94.2925 119.005 94.8257 119.005C95.6593 119.005 96.3195 119.291 96.8062 119.862C97.297 120.429 97.5425 121.205 97.5425 122.191V122.617H92.6421V122.763C92.6421 123.541 92.8643 124.191 93.3086 124.711C93.7572 125.228 94.32 125.486 94.9971 125.486C95.4033 125.486 95.7609 125.412 96.0698 125.264C96.383 125.116 96.6665 124.879 96.9204 124.553L97.3965 124.915C96.8379 125.723 96.0275 126.127 94.9653 126.127ZM94.8257 119.652C94.2544 119.652 93.772 119.862 93.3784 120.281C92.9891 120.7 92.7521 121.263 92.6675 121.969H96.7871V121.887C96.766 121.227 96.5776 120.689 96.2222 120.274C95.8667 119.86 95.4012 119.652 94.8257 119.652ZM101.18 121.918L103.033 119.132H103.935L101.605 122.502L104.036 126H103.141L101.186 123.093L99.231 126H98.3359L100.761 122.502L98.4312 119.132H99.3262L101.18 121.918ZM108.587 126V119.132H111.107C111.979 119.132 112.648 119.288 113.113 119.602C113.579 119.91 113.812 120.365 113.812 120.966C113.812 121.309 113.708 121.616 113.5 121.887C113.293 122.153 112.991 122.348 112.593 122.471C113.041 122.555 113.401 122.748 113.672 123.048C113.947 123.349 114.084 123.698 114.084 124.096C114.084 124.701 113.86 125.171 113.412 125.505C112.967 125.835 112.337 126 111.52 126H108.587ZM109.343 122.839V125.365H111.545C112.117 125.365 112.557 125.255 112.866 125.035C113.175 124.815 113.329 124.498 113.329 124.083C113.329 123.702 113.175 123.4 112.866 123.175C112.557 122.951 112.117 122.839 111.545 122.839H109.343ZM109.343 122.204H111.266C112.459 122.187 113.056 121.781 113.056 120.985C113.056 120.566 112.891 120.262 112.561 120.071C112.235 119.877 111.751 119.779 111.107 119.779H109.343V122.204ZM120.115 126C120.039 125.784 119.99 125.465 119.969 125.042C119.702 125.389 119.361 125.657 118.947 125.848C118.536 126.034 118.1 126.127 117.639 126.127C116.979 126.127 116.444 125.943 116.033 125.575C115.627 125.207 115.424 124.741 115.424 124.178C115.424 123.51 115.701 122.981 116.255 122.591C116.814 122.202 117.59 122.007 118.585 122.007H119.962V121.227C119.962 120.736 119.81 120.351 119.505 120.071C119.205 119.788 118.765 119.646 118.185 119.646C117.656 119.646 117.218 119.781 116.871 120.052C116.524 120.323 116.351 120.649 116.351 121.03L115.589 121.023C115.589 120.478 115.843 120.006 116.351 119.608C116.858 119.206 117.483 119.005 118.223 119.005C118.989 119.005 119.592 119.197 120.032 119.583C120.477 119.963 120.705 120.497 120.718 121.182V124.432C120.718 125.097 120.788 125.594 120.927 125.924V126H120.115ZM117.728 125.454C118.236 125.454 118.689 125.331 119.086 125.086C119.488 124.84 119.78 124.513 119.962 124.102V122.591H118.604C117.847 122.6 117.254 122.739 116.827 123.01C116.399 123.277 116.186 123.645 116.186 124.115C116.186 124.5 116.327 124.819 116.611 125.073C116.899 125.327 117.271 125.454 117.728 125.454ZM124.615 122.852H123.562V126H122.793V119.132H123.562V122.179H124.603L127.123 119.132H128.081L125.263 122.464L128.392 126H127.389L124.615 122.852ZM133.826 126C133.75 125.784 133.701 125.465 133.68 125.042C133.413 125.389 133.072 125.657 132.658 125.848C132.247 126.034 131.811 126.127 131.35 126.127C130.69 126.127 130.155 125.943 129.744 125.575C129.338 125.207 129.135 124.741 129.135 124.178C129.135 123.51 129.412 122.981 129.966 122.591C130.525 122.202 131.301 122.007 132.296 122.007H133.673V121.227C133.673 120.736 133.521 120.351 133.216 120.071C132.916 119.788 132.476 119.646 131.896 119.646C131.367 119.646 130.929 119.781 130.582 120.052C130.235 120.323 130.062 120.649 130.062 121.03L129.3 121.023C129.3 120.478 129.554 120.006 130.062 119.608C130.569 119.206 131.194 119.005 131.934 119.005C132.7 119.005 133.303 119.197 133.743 119.583C134.188 119.963 134.416 120.497 134.429 121.182V124.432C134.429 125.097 134.499 125.594 134.638 125.924V126H133.826ZM131.439 125.454C131.947 125.454 132.4 125.331 132.797 125.086C133.199 124.84 133.491 124.513 133.673 124.102V122.591H132.315C131.557 122.6 130.965 122.739 130.538 123.01C130.11 123.277 129.896 123.645 129.896 124.115C129.896 124.5 130.038 124.819 130.322 125.073C130.61 125.327 130.982 125.454 131.439 125.454ZM141.735 126H140.973V122.852H137.272V126H136.511V119.132H137.272V122.21H140.973V119.132H141.735V126ZM146.312 125.486C146.84 125.486 147.283 125.338 147.638 125.042C147.998 124.741 148.193 124.354 148.222 123.88H148.952C148.931 124.299 148.8 124.682 148.559 125.029C148.317 125.372 147.996 125.64 147.594 125.835C147.196 126.03 146.769 126.127 146.312 126.127C145.41 126.127 144.695 125.814 144.166 125.188C143.641 124.561 143.379 123.719 143.379 122.661V122.433C143.379 121.756 143.497 121.157 143.734 120.636C143.971 120.116 144.31 119.714 144.75 119.43C145.194 119.147 145.713 119.005 146.305 119.005C147.058 119.005 147.678 119.229 148.165 119.678C148.656 120.126 148.918 120.717 148.952 121.449H148.222C148.188 120.911 147.994 120.478 147.638 120.147C147.287 119.817 146.843 119.652 146.305 119.652C145.62 119.652 145.086 119.9 144.706 120.395C144.329 120.89 144.141 121.584 144.141 122.477V122.699C144.141 123.575 144.329 124.259 144.706 124.75C145.086 125.24 145.622 125.486 146.312 125.486ZM154.989 119.132H155.75V126H154.989V120.357L151.282 126H150.526V119.132H151.282V124.781L154.989 119.132ZM162.301 119.132H163.063V126H162.301V120.357L158.594 126H157.839V119.132H158.594V124.781L162.301 119.132ZM162.263 116.656C162.263 117.143 162.096 117.536 161.762 117.837C161.432 118.137 160.987 118.288 160.429 118.288C159.879 118.288 159.434 118.139 159.096 117.843C158.761 117.543 158.594 117.147 158.594 116.656H159.242C159.242 117.007 159.345 117.276 159.553 117.462C159.764 117.649 160.056 117.742 160.429 117.742C160.801 117.742 161.091 117.644 161.298 117.45C161.51 117.255 161.616 116.991 161.616 116.656H162.263ZM170.128 122.852H169.074V126H168.306V119.132H169.074V122.179H170.115L172.635 119.132H173.594L170.775 122.464L173.905 126H172.902L170.128 122.852ZM179.338 126C179.262 125.784 179.214 125.465 179.192 125.042C178.926 125.389 178.585 125.657 178.17 125.848C177.76 126.034 177.324 126.127 176.863 126.127C176.203 126.127 175.667 125.943 175.257 125.575C174.851 125.207 174.647 124.741 174.647 124.178C174.647 123.51 174.925 122.981 175.479 122.591C176.038 122.202 176.814 122.007 177.809 122.007H179.186V121.227C179.186 120.736 179.034 120.351 178.729 120.071C178.429 119.788 177.988 119.646 177.409 119.646C176.88 119.646 176.442 119.781 176.095 120.052C175.748 120.323 175.574 120.649 175.574 121.03L174.812 121.023C174.812 120.478 175.066 120.006 175.574 119.608C176.082 119.206 176.706 119.005 177.447 119.005C178.213 119.005 178.816 119.197 179.256 119.583C179.7 119.963 179.929 120.497 179.941 121.182V124.432C179.941 125.097 180.011 125.594 180.151 125.924V126H179.338ZM176.952 125.454C177.459 125.454 177.912 125.331 178.31 125.086C178.712 124.84 179.004 124.513 179.186 124.102V122.591H177.828C177.07 122.6 176.478 122.739 176.05 123.01C175.623 123.277 175.409 123.645 175.409 124.115C175.409 124.5 175.551 124.819 175.834 125.073C176.122 125.327 176.495 125.454 176.952 125.454ZM187.222 122.826H186.308V126H185.546V122.826H184.639L182.1 126H181.135L183.979 122.477L181.452 119.132H182.373L184.626 122.147H185.546V119.132H186.308V122.147H187.235L189.488 119.132H190.421L187.882 122.477L190.732 126H189.761L187.222 122.826ZM191.792 125.359L192.129 124.921C192.662 124.197 192.969 123.139 193.049 121.747L193.17 119.132H197.226V125.359H197.937V128.019H197.182V126H192.021V128.019H191.291L191.297 125.359H191.792ZM192.668 125.359H196.464V119.843H193.894L193.811 121.626C193.735 123.264 193.354 124.508 192.668 125.359ZM200.241 121.626H202.222C202.729 121.626 203.174 121.72 203.555 121.906C203.94 122.088 204.23 122.342 204.424 122.667C204.623 122.993 204.723 123.372 204.723 123.804C204.723 124.468 204.494 125.001 204.037 125.403C203.584 125.801 202.971 126 202.196 126H199.486V119.132H200.241V121.626ZM200.241 122.274V125.359H202.209C202.755 125.359 203.182 125.221 203.491 124.946C203.804 124.671 203.961 124.295 203.961 123.816C203.961 123.359 203.809 122.991 203.504 122.712C203.203 122.428 202.791 122.282 202.266 122.274H200.241ZM207.052 126H206.291V119.132H207.052V126ZM213.679 119.132H214.441V126H213.679V120.357L209.972 126H209.217V119.132H209.972V124.781L213.679 119.132ZM213.641 116.656C213.641 117.143 213.474 117.536 213.14 117.837C212.81 118.137 212.365 118.288 211.807 118.288C211.257 118.288 210.812 118.139 210.474 117.843C210.139 117.543 209.972 117.147 209.972 116.656H210.62C210.62 117.007 210.723 117.276 210.931 117.462C211.142 117.649 211.434 117.742 211.807 117.742C212.179 117.742 212.469 117.644 212.676 117.45C212.888 117.255 212.994 116.991 212.994 116.656H213.641ZM23.5352 141.023H24.9761V141.664H23.5352V144H22.7734V141.664H18.4253V141.232L22.7036 134.758H23.5352V141.023ZM19.3584 141.023H22.7734V135.742L22.437 136.326L19.3584 141.023ZM29.2036 143.359L29.54 142.921C30.0732 142.197 30.38 141.139 30.4604 139.747L30.5811 137.132H34.6372V143.359H35.3481V146.019H34.5928V144H29.4321V146.019H28.7021L28.7085 143.359H29.2036ZM30.0796 143.359H33.8755V137.843H31.3047L31.2222 139.626C31.146 141.264 30.7651 142.508 30.0796 143.359ZM39.4741 144.127C38.8901 144.127 38.3612 143.983 37.8872 143.695C37.4175 143.408 37.0514 143.008 36.7891 142.496C36.5267 141.979 36.3955 141.402 36.3955 140.763V140.49C36.3955 139.83 36.5225 139.235 36.7764 138.706C37.0345 138.177 37.3921 137.762 37.8491 137.462C38.3062 137.157 38.8013 137.005 39.3345 137.005C40.1681 137.005 40.8283 137.291 41.3149 137.862C41.8058 138.429 42.0513 139.205 42.0513 140.191V140.617H37.1509V140.763C37.1509 141.541 37.373 142.191 37.8174 142.711C38.266 143.228 38.8288 143.486 39.5059 143.486C39.9121 143.486 40.2697 143.412 40.5786 143.264C40.8918 143.116 41.1753 142.879 41.4292 142.553L41.9053 142.915C41.3467 143.723 40.5363 144.127 39.4741 144.127ZM39.3345 137.652C38.7632 137.652 38.2808 137.862 37.8872 138.281C37.4979 138.7 37.2609 139.263 37.1763 139.969H41.2959V139.887C41.2747 139.227 41.0864 138.689 40.731 138.274C40.3755 137.86 39.91 137.652 39.3345 137.652ZM48.8052 144H48.0435V140.852H44.3428V144H43.5811V137.132H44.3428V140.21H48.0435V137.132H48.8052V144ZM51.6807 139.626H53.6611C54.1689 139.626 54.6133 139.72 54.9941 139.906C55.3792 140.088 55.6691 140.342 55.8638 140.667C56.0627 140.993 56.1621 141.372 56.1621 141.804C56.1621 142.468 55.9336 143.001 55.4766 143.403C55.0238 143.801 54.4102 144 53.6357 144H50.9253V137.132H51.6807V139.626ZM51.6807 140.274V143.359H53.6484C54.1943 143.359 54.6217 143.221 54.9307 142.946C55.2438 142.671 55.4004 142.295 55.4004 141.816C55.4004 141.359 55.248 140.991 54.9434 140.712C54.6429 140.428 54.2303 140.282 53.7056 140.274H51.6807ZM61.0435 144V137.132H63.5635C64.4352 137.132 65.1038 137.288 65.5693 137.602C66.0348 137.91 66.2676 138.365 66.2676 138.966C66.2676 139.309 66.1639 139.616 65.9565 139.887C65.7492 140.153 65.4466 140.348 65.0488 140.471C65.4974 140.555 65.8571 140.748 66.1279 141.048C66.403 141.349 66.5405 141.698 66.5405 142.096C66.5405 142.701 66.3162 143.171 65.8677 143.505C65.4233 143.835 64.7928 144 63.9761 144H61.0435ZM61.7988 140.839V143.365H64.0015C64.5728 143.365 65.0129 143.255 65.3218 143.035C65.6307 142.815 65.7852 142.498 65.7852 142.083C65.7852 141.702 65.6307 141.4 65.3218 141.175C65.0129 140.951 64.5728 140.839 64.0015 140.839H61.7988ZM61.7988 140.204H63.7222C64.9155 140.187 65.5122 139.781 65.5122 138.985C65.5122 138.566 65.3472 138.262 65.0171 138.071C64.6912 137.877 64.2067 137.779 63.5635 137.779H61.7988V140.204ZM76.3286 137.779H73.8276V144H73.0659V137.779H70.6602V137.132H76.3286V137.779ZM79.731 144.127C79.147 144.127 78.618 143.983 78.144 143.695C77.6743 143.408 77.3083 143.008 77.0459 142.496C76.7835 141.979 76.6523 141.402 76.6523 140.763V140.49C76.6523 139.83 76.7793 139.235 77.0332 138.706C77.2913 138.177 77.6489 137.762 78.106 137.462C78.563 137.157 79.0581 137.005 79.5913 137.005C80.425 137.005 81.0851 137.291 81.5718 137.862C82.0627 138.429 82.3081 139.205 82.3081 140.191V140.617H77.4077V140.763C77.4077 141.541 77.6299 142.191 78.0742 142.711C78.5228 143.228 79.0856 143.486 79.7627 143.486C80.1689 143.486 80.5265 143.412 80.8354 143.264C81.1486 143.116 81.4321 142.879 81.686 142.553L82.1621 142.915C81.6035 143.723 80.7931 144.127 79.731 144.127ZM79.5913 137.652C79.02 137.652 78.5376 137.862 78.144 138.281C77.7547 138.7 77.5177 139.263 77.4331 139.969H81.5527V139.887C81.5316 139.227 81.3433 138.689 80.9878 138.274C80.6323 137.86 80.1668 137.652 79.5913 137.652ZM88.6748 144H87.9131V141.112C87.2868 141.34 86.688 141.455 86.1167 141.455C85.2069 141.455 84.5467 141.256 84.1362 140.858C83.7257 140.456 83.512 139.832 83.4951 138.985V137.132H84.2505V138.947C84.259 139.603 84.4028 140.077 84.6821 140.369C84.9657 140.657 85.4438 140.801 86.1167 140.801C86.7303 140.784 87.3291 140.674 87.9131 140.471V137.132H88.6748V144ZM93.3657 144.127C92.7817 144.127 92.2528 143.983 91.7788 143.695C91.3091 143.408 90.943 143.008 90.6807 142.496C90.4183 141.979 90.2871 141.402 90.2871 140.763V140.49C90.2871 139.83 90.4141 139.235 90.668 138.706C90.9261 138.177 91.2837 137.762 91.7407 137.462C92.1978 137.157 92.6929 137.005 93.2261 137.005C94.0597 137.005 94.7199 137.291 95.2065 137.862C95.6974 138.429 95.9429 139.205 95.9429 140.191V140.617H91.0425V140.763C91.0425 141.541 91.2646 142.191 91.709 142.711C92.1576 143.228 92.7204 143.486 93.3975 143.486C93.8037 143.486 94.1613 143.412 94.4702 143.264C94.7834 143.116 95.0669 142.879 95.3208 142.553L95.7969 142.915C95.2383 143.723 94.4279 144.127 93.3657 144.127ZM93.2261 137.652C92.6548 137.652 92.1724 137.862 91.7788 138.281C91.3895 138.7 91.1525 139.263 91.0679 139.969H95.1875V139.887C95.1663 139.227 94.978 138.689 94.6226 138.274C94.2671 137.86 93.8016 137.652 93.2261 137.652ZM102.697 144H101.935V140.852H98.2344V144H97.4727V137.132H98.2344V140.21H101.935V137.132H102.697V144ZM109.248 137.132H110.009V144H109.248V138.357L105.541 144H104.785V137.132H105.541V142.781L109.248 137.132ZM116.56 137.132H117.322V144H116.56V138.357L112.853 144H112.098V137.132H112.853V142.781L116.56 137.132ZM124.088 138.966H124.875C125.311 138.966 125.692 138.89 126.018 138.738C126.344 138.581 126.591 138.37 126.761 138.103C126.934 137.832 127.021 137.521 127.021 137.17C127.021 136.577 126.854 136.114 126.52 135.78C126.185 135.445 125.705 135.278 125.079 135.278C124.486 135.278 124 135.454 123.619 135.805C123.242 136.152 123.054 136.611 123.054 137.183H122.292C122.292 136.704 122.413 136.269 122.654 135.875C122.895 135.477 123.229 135.17 123.657 134.955C124.084 134.739 124.558 134.631 125.079 134.631C125.917 134.631 126.577 134.859 127.059 135.316C127.542 135.773 127.783 136.4 127.783 137.195C127.783 137.64 127.641 138.05 127.357 138.427C127.078 138.799 126.693 139.078 126.202 139.265C126.778 139.425 127.214 139.703 127.51 140.096C127.806 140.486 127.954 140.951 127.954 141.493C127.954 142.284 127.696 142.921 127.18 143.403C126.663 143.886 125.974 144.127 125.11 144.127C124.56 144.127 124.055 144.017 123.593 143.797C123.136 143.577 122.781 143.27 122.527 142.876C122.277 142.479 122.152 142.017 122.152 141.493H122.914C122.914 142.081 123.119 142.561 123.53 142.934C123.94 143.302 124.467 143.486 125.11 143.486C125.766 143.486 126.276 143.319 126.64 142.984C127.008 142.646 127.192 142.157 127.192 141.518C127.192 140.9 126.993 140.428 126.596 140.103C126.202 139.777 125.62 139.614 124.85 139.614H124.088V138.966ZM135.184 140.147C135.184 141.45 134.945 142.441 134.467 143.118C133.989 143.791 133.284 144.127 132.353 144.127C131.439 144.127 130.739 143.797 130.252 143.137C129.765 142.472 129.516 141.507 129.503 140.242V138.585C129.503 137.286 129.744 136.302 130.227 135.634C130.709 134.965 131.414 134.631 132.34 134.631C133.254 134.631 133.953 134.955 134.435 135.602C134.917 136.245 135.167 137.195 135.184 138.452V140.147ZM134.422 138.49C134.422 137.432 134.249 136.632 133.902 136.091C133.559 135.549 133.039 135.278 132.34 135.278C131.655 135.278 131.139 135.543 130.792 136.072C130.444 136.601 130.267 137.382 130.258 138.414V140.229C130.258 141.283 130.436 142.089 130.792 142.648C131.151 143.207 131.672 143.486 132.353 143.486C133.03 143.486 133.542 143.213 133.889 142.667C134.24 142.121 134.418 141.321 134.422 140.268V138.49ZM139.945 143.359L140.281 142.921C140.814 142.197 141.121 141.139 141.202 139.747L141.322 137.132H145.378V143.359H146.089V146.019H145.334V144H140.173V146.019H139.443L139.45 143.359H139.945ZM140.821 143.359H144.617V137.843H142.046L141.963 139.626C141.887 141.264 141.506 142.508 140.821 143.359ZM152.831 144H152.069V140.852H148.368V144H147.606V137.132H148.368V140.21H152.069V137.132H152.831V144ZM157.528 144.127C156.944 144.127 156.415 143.983 155.941 143.695C155.471 143.408 155.105 143.008 154.843 142.496C154.58 141.979 154.449 141.402 154.449 140.763V140.49C154.449 139.83 154.576 139.235 154.83 138.706C155.088 138.177 155.446 137.762 155.903 137.462C156.36 137.157 156.855 137.005 157.388 137.005C158.222 137.005 158.882 137.291 159.369 137.862C159.86 138.429 160.105 139.205 160.105 140.191V140.617H155.205V140.763C155.205 141.541 155.427 142.191 155.871 142.711C156.32 143.228 156.882 143.486 157.56 143.486C157.966 143.486 158.323 143.412 158.632 143.264C158.945 143.116 159.229 142.879 159.483 142.553L159.959 142.915C159.4 143.723 158.59 144.127 157.528 144.127ZM157.388 137.652C156.817 137.652 156.334 137.862 155.941 138.281C155.552 138.7 155.315 139.263 155.23 139.969H159.35V139.887C159.328 139.227 159.14 138.689 158.785 138.274C158.429 137.86 157.964 137.652 157.388 137.652ZM166.097 137.132H166.859V144H166.097V138.357L162.39 144H161.635V137.132H162.39V142.781L166.097 137.132ZM166.059 134.656C166.059 135.143 165.892 135.536 165.558 135.837C165.228 136.137 164.783 136.288 164.225 136.288C163.674 136.288 163.23 136.139 162.892 135.843C162.557 135.543 162.39 135.147 162.39 134.656H163.038C163.038 135.007 163.141 135.276 163.349 135.462C163.56 135.649 163.852 135.742 164.225 135.742C164.597 135.742 164.887 135.644 165.094 135.45C165.306 135.255 165.412 134.991 165.412 134.656H166.059Z" fill="white"/>
    <path d="M25.9917 179H25.2109V170.424H19.9805V179H19.1997V169.758H25.9917V179ZM27.7754 175.464C27.7754 174.804 27.9023 174.21 28.1562 173.681C28.4144 173.152 28.7762 172.741 29.2417 172.449C29.7114 172.153 30.2425 172.005 30.835 172.005C31.749 172.005 32.4896 172.326 33.0566 172.97C33.6237 173.609 33.9072 174.457 33.9072 175.515V175.674C33.9072 176.338 33.7782 176.937 33.52 177.47C33.2661 177.999 32.9064 178.408 32.4409 178.695C31.9754 178.983 31.4443 179.127 30.8477 179.127C29.9378 179.127 29.1973 178.807 28.626 178.168C28.0589 177.525 27.7754 176.675 27.7754 175.617V175.464ZM28.5371 175.674C28.5371 176.495 28.7487 177.17 29.1719 177.699C29.5993 178.223 30.1579 178.486 30.8477 178.486C31.5332 178.486 32.0876 178.223 32.5107 177.699C32.9382 177.17 33.1519 176.474 33.1519 175.61V175.464C33.1519 174.94 33.0545 174.459 32.8599 174.023C32.6652 173.588 32.3923 173.251 32.041 173.014C31.6898 172.773 31.2878 172.652 30.835 172.652C30.1579 172.652 29.6056 172.919 29.1782 173.452C28.7508 173.981 28.5371 174.675 28.5371 175.534V175.674ZM34.8657 178.359L35.2021 177.921C35.7354 177.197 36.0422 176.139 36.1226 174.747L36.2432 172.132H40.2993V178.359H41.0103V181.019H40.2549V179H35.0942V181.019H34.3643L34.3706 178.359H34.8657ZM35.7417 178.359H39.5376V172.843H36.9668L36.8843 174.626C36.8081 176.264 36.4272 177.508 35.7417 178.359ZM47.999 175.636C47.999 176.706 47.762 177.557 47.2881 178.188C46.8141 178.814 46.1794 179.127 45.3838 179.127C44.4443 179.127 43.7249 178.797 43.2256 178.137V181.641H42.4702V172.132H43.1748L43.2129 173.103C43.708 172.371 44.4253 172.005 45.3647 172.005C46.1857 172.005 46.8289 172.316 47.2944 172.938C47.7642 173.56 47.999 174.423 47.999 175.528V175.636ZM47.2373 175.502C47.2373 174.626 47.0575 173.935 46.6978 173.427C46.3381 172.919 45.8366 172.665 45.1934 172.665C44.7279 172.665 44.328 172.777 43.9937 173.001C43.6593 173.226 43.4033 173.552 43.2256 173.979V177.273C43.4076 177.667 43.6678 177.967 44.0063 178.175C44.3449 178.382 44.7448 178.486 45.2061 178.486C45.8451 178.486 46.3423 178.232 46.6978 177.724C47.0575 177.212 47.2373 176.472 47.2373 175.502ZM49.2686 175.464C49.2686 174.804 49.3955 174.21 49.6494 173.681C49.9076 173.152 50.2694 172.741 50.7349 172.449C51.2046 172.153 51.7357 172.005 52.3281 172.005C53.2422 172.005 53.9827 172.326 54.5498 172.97C55.1169 173.609 55.4004 174.457 55.4004 175.515V175.674C55.4004 176.338 55.2713 176.937 55.0132 177.47C54.7593 177.999 54.3996 178.408 53.9341 178.695C53.4686 178.983 52.9375 179.127 52.3408 179.127C51.431 179.127 50.6904 178.807 50.1191 178.168C49.5521 177.525 49.2686 176.675 49.2686 175.617V175.464ZM50.0303 175.674C50.0303 176.495 50.2419 177.17 50.665 177.699C51.0924 178.223 51.651 178.486 52.3408 178.486C53.0264 178.486 53.5807 178.223 54.0039 177.699C54.4313 177.17 54.645 176.474 54.645 175.61V175.464C54.645 174.94 54.5477 174.459 54.353 174.023C54.1584 173.588 53.8854 173.251 53.5342 173.014C53.1829 172.773 52.7809 172.652 52.3281 172.652C51.651 172.652 51.0988 172.919 50.6714 173.452C50.244 173.981 50.0303 174.675 50.0303 175.534V175.674ZM59.7422 172.589C60.6139 172.589 61.3206 172.875 61.8623 173.446C62.404 174.013 62.6748 174.766 62.6748 175.706V175.871C62.6748 176.493 62.55 177.053 62.3003 177.553C62.0549 178.048 61.6994 178.435 61.2339 178.714C60.7726 178.989 60.2415 179.127 59.6406 179.127C58.735 179.127 58.0008 178.826 57.438 178.226C56.8794 177.62 56.6001 176.814 56.6001 175.807V175.198C56.6001 173.776 56.8709 172.64 57.4126 171.789C57.9543 170.938 58.7244 170.431 59.7231 170.266C60.3537 170.164 60.7959 170.027 61.0498 169.853C61.3079 169.68 61.437 169.443 61.437 169.142H62.0908C62.0908 169.498 62.0168 169.792 61.8687 170.024C61.7205 170.257 61.4984 170.445 61.2021 170.589C60.9059 170.729 60.4531 170.847 59.8438 170.945C59.1455 171.055 58.5827 171.353 58.1553 171.84C57.7321 172.322 57.457 172.97 57.3301 173.782C57.6009 173.427 57.9395 173.139 58.3457 172.919C58.7562 172.699 59.2217 172.589 59.7422 172.589ZM57.3618 175.712V175.871C57.3618 176.645 57.5713 177.276 57.9902 177.762C58.4092 178.245 58.9593 178.486 59.6406 178.486C60.3262 178.486 60.8763 178.243 61.291 177.756C61.7057 177.265 61.9131 176.622 61.9131 175.826V175.661C61.9131 174.946 61.7015 174.362 61.2783 173.909C60.8594 173.456 60.3092 173.23 59.6279 173.23C58.9466 173.23 58.3986 173.461 57.9839 173.922C57.5692 174.379 57.3618 174.976 57.3618 175.712ZM69.2954 179H68.5337V175.852H64.833V179H64.0713V172.132H64.833V175.21H68.5337V172.132H69.2954V179ZM73.9927 179.127C73.4087 179.127 72.8797 178.983 72.4058 178.695C71.936 178.408 71.57 178.008 71.3076 177.496C71.0452 176.979 70.9141 176.402 70.9141 175.763V175.49C70.9141 174.83 71.041 174.235 71.2949 173.706C71.5531 173.177 71.9106 172.762 72.3677 172.462C72.8247 172.157 73.3198 172.005 73.853 172.005C74.6867 172.005 75.3468 172.291 75.8335 172.862C76.3244 173.429 76.5698 174.205 76.5698 175.191V175.617H71.6694V175.763C71.6694 176.541 71.8916 177.191 72.3359 177.711C72.7845 178.228 73.3473 178.486 74.0244 178.486C74.4307 178.486 74.7882 178.412 75.0972 178.264C75.4103 178.116 75.6938 177.879 75.9478 177.553L76.4238 177.915C75.8652 178.723 75.0549 179.127 73.9927 179.127ZM73.853 172.652C73.2817 172.652 72.7993 172.862 72.4058 173.281C72.0164 173.7 71.7795 174.263 71.6948 174.969H75.8145V174.887C75.7933 174.227 75.605 173.689 75.2495 173.274C74.894 172.86 74.4285 172.652 73.853 172.652ZM80.7085 179.127C80.1245 179.127 79.5955 178.983 79.1216 178.695C78.6519 178.408 78.2858 178.008 78.0234 177.496C77.7611 176.979 77.6299 176.402 77.6299 175.763V175.49C77.6299 174.83 77.7568 174.235 78.0107 173.706C78.2689 173.177 78.6265 172.762 79.0835 172.462C79.5405 172.157 80.0356 172.005 80.5688 172.005C81.4025 172.005 82.0627 172.291 82.5493 172.862C83.0402 173.429 83.2856 174.205 83.2856 175.191V175.617H78.3853V175.763C78.3853 176.541 78.6074 177.191 79.0518 177.711C79.5003 178.228 80.0632 178.486 80.7402 178.486C81.1465 178.486 81.5041 178.412 81.813 178.264C82.1261 178.116 82.4097 177.879 82.6636 177.553L83.1396 177.915C82.5811 178.723 81.7707 179.127 80.7085 179.127ZM80.5688 172.652C79.9976 172.652 79.5151 172.862 79.1216 173.281C78.7323 173.7 78.4953 174.263 78.4106 174.969H82.5303V174.887C82.5091 174.227 82.3208 173.689 81.9653 173.274C81.6099 172.86 81.1444 172.652 80.5688 172.652Z" fill="white"/>
    <path d="M21.0215 17.7578L23.6875 24.8418L26.3472 17.7578H28.4229V27H26.8232V23.9531L26.9819 19.8779L24.2524 27H23.1035L20.3804 19.8843L20.5391 23.9531V27H18.9395V17.7578H21.0215ZM29.8892 23.5024C29.8892 22.8296 30.0225 22.2244 30.2891 21.687C30.5557 21.1453 30.9302 20.7306 31.4126 20.4429C31.895 20.1509 32.4494 20.0049 33.0757 20.0049C34.0024 20.0049 34.7536 20.3032 35.3291 20.8999C35.9089 21.4966 36.222 22.2879 36.2686 23.2739L36.2749 23.6357C36.2749 24.3128 36.1437 24.918 35.8813 25.4512C35.6232 25.9844 35.2508 26.397 34.7642 26.689C34.2817 26.981 33.7231 27.127 33.0884 27.127C32.1193 27.127 31.3428 26.8053 30.7588 26.1621C30.179 25.5146 29.8892 24.6535 29.8892 23.5786V23.5024ZM31.4316 23.6357C31.4316 24.3424 31.5776 24.8968 31.8696 25.2988C32.1616 25.6966 32.5679 25.8955 33.0884 25.8955C33.6089 25.8955 34.013 25.6924 34.3008 25.2861C34.5928 24.8799 34.7388 24.2853 34.7388 23.5024C34.7388 22.8084 34.5885 22.2583 34.2881 21.8521C33.9919 21.4458 33.5877 21.2427 33.0757 21.2427C32.5721 21.2427 32.1722 21.4437 31.876 21.8457C31.5798 22.2435 31.4316 22.8402 31.4316 23.6357ZM43.4858 24.2388H42.667V27H41.1245V24.2388H40.312L38.7314 27H36.8398L39.1187 23.4263L36.9604 20.1318H38.8457L40.4009 22.8296H41.1245V20.1318H42.667V22.8296H43.397L44.9585 20.1318H46.8438L44.6919 23.4072L46.9834 27H45.0664L43.4858 24.2388ZM53.7563 27H52.2139V24.2261H49.5415V27H47.999V20.1318H49.5415V22.9946H52.2139V20.1318H53.7563V27ZM55.1147 23.5024C55.1147 22.8296 55.248 22.2244 55.5146 21.687C55.7812 21.1453 56.1558 20.7306 56.6382 20.4429C57.1206 20.1509 57.675 20.0049 58.3013 20.0049C59.228 20.0049 59.9792 20.3032 60.5547 20.8999C61.1344 21.4966 61.4476 22.2879 61.4941 23.2739L61.5005 23.6357C61.5005 24.3128 61.3693 24.918 61.1069 25.4512C60.8488 25.9844 60.4764 26.397 59.9897 26.689C59.5073 26.981 58.9487 27.127 58.314 27.127C57.3449 27.127 56.5684 26.8053 55.9844 26.1621C55.4046 25.5146 55.1147 24.6535 55.1147 23.5786V23.5024ZM56.6572 23.6357C56.6572 24.3424 56.8032 24.8968 57.0952 25.2988C57.3872 25.6966 57.7935 25.8955 58.314 25.8955C58.8345 25.8955 59.2386 25.6924 59.5264 25.2861C59.8184 24.8799 59.9644 24.2853 59.9644 23.5024C59.9644 22.8084 59.8141 22.2583 59.5137 21.8521C59.2174 21.4458 58.8133 21.2427 58.3013 21.2427C57.7977 21.2427 57.3978 21.4437 57.1016 21.8457C56.8053 22.2435 56.6572 22.8402 56.6572 23.6357ZM66.1597 27V20.1318H68.9463C69.8857 20.1318 70.6009 20.2969 71.0918 20.627C71.5827 20.9528 71.8281 21.4225 71.8281 22.0361C71.8281 22.3535 71.7287 22.6392 71.5298 22.8931C71.3351 23.1427 71.0452 23.3353 70.6602 23.4707C71.1087 23.5638 71.4642 23.7521 71.7266 24.0356C71.9889 24.3192 72.1201 24.6535 72.1201 25.0386C72.1201 25.6776 71.8831 26.1642 71.4092 26.4985C70.9395 26.8328 70.2624 27 69.3779 27H66.1597ZM67.7021 24.0737V25.7812H69.3906C70.182 25.7812 70.5776 25.4977 70.5776 24.9307C70.5776 24.3594 70.1756 24.0737 69.3716 24.0737H67.7021ZM67.7021 22.9692H68.9717C69.8477 22.9692 70.2856 22.7111 70.2856 22.1948C70.2856 21.6532 69.8709 21.3739 69.0415 21.3569H67.7021V22.9692ZM76.2778 25.8955C76.6629 25.8955 76.9824 25.7834 77.2363 25.5591C77.4902 25.3348 77.6257 25.0576 77.6426 24.7275H79.0962C79.0793 25.1549 78.946 25.5549 78.6963 25.9272C78.4466 26.2954 78.1081 26.5874 77.6807 26.8032C77.2533 27.019 76.792 27.127 76.2969 27.127C75.3363 27.127 74.5745 26.8159 74.0117 26.1938C73.4489 25.5718 73.1675 24.7127 73.1675 23.6167V23.458C73.1675 22.4128 73.4468 21.577 74.0054 20.9507C74.564 20.3201 75.3257 20.0049 76.2905 20.0049C77.1073 20.0049 77.7716 20.244 78.2837 20.7222C78.8 21.1961 79.0708 21.8203 79.0962 22.5947H77.6426C77.6257 22.2012 77.4902 21.8774 77.2363 21.6235C76.9867 21.3696 76.6672 21.2427 76.2778 21.2427C75.7785 21.2427 75.3934 21.4246 75.1226 21.7886C74.8517 22.1483 74.7142 22.6963 74.71 23.4326V23.6802C74.71 24.425 74.8433 24.9814 75.1099 25.3496C75.3807 25.7135 75.77 25.8955 76.2778 25.8955ZM83.2856 27.127C82.3081 27.127 81.5146 26.8201 80.9053 26.2065C80.3001 25.5887 79.9976 24.7677 79.9976 23.7437V23.5532C79.9976 22.8677 80.1287 22.2562 80.3911 21.7188C80.6577 21.1771 81.0301 20.756 81.5083 20.4556C81.9865 20.1551 82.5197 20.0049 83.1079 20.0049C84.0431 20.0049 84.7646 20.3032 85.2725 20.8999C85.7845 21.4966 86.0405 22.3408 86.0405 23.4326V24.0547H81.5527C81.5993 24.6217 81.7876 25.0703 82.1177 25.4004C82.452 25.7305 82.8709 25.8955 83.3745 25.8955C84.0812 25.8955 84.6567 25.6099 85.1011 25.0386L85.9326 25.832C85.6576 26.2425 85.2894 26.562 84.8281 26.7905C84.3711 27.0148 83.8569 27.127 83.2856 27.127ZM83.1016 21.2427C82.6784 21.2427 82.3356 21.3908 82.0732 21.687C81.8151 21.9832 81.6501 22.3958 81.5781 22.9248H84.5171V22.8105C84.4832 22.2943 84.3457 21.9049 84.1045 21.6426C83.8633 21.376 83.529 21.2427 83.1016 21.2427ZM94.5845 27C94.5168 26.8688 94.4575 26.6551 94.4067 26.3589C93.9159 26.8709 93.3149 27.127 92.604 27.127C91.9142 27.127 91.3514 26.9302 90.9155 26.5366C90.4797 26.1431 90.2617 25.6564 90.2617 25.0767C90.2617 24.3446 90.5326 23.7839 91.0742 23.3945C91.6201 23.001 92.3988 22.8042 93.4102 22.8042H94.356V22.3535C94.356 21.998 94.2565 21.7145 94.0576 21.5029C93.8587 21.2871 93.5562 21.1792 93.1499 21.1792C92.7987 21.1792 92.5109 21.2681 92.2866 21.4458C92.0623 21.6193 91.9502 21.8415 91.9502 22.1123H90.4077C90.4077 21.7357 90.5326 21.3844 90.7822 21.0586C91.0319 20.7285 91.3704 20.4704 91.7979 20.2842C92.2295 20.098 92.7098 20.0049 93.2388 20.0049C94.0428 20.0049 94.6839 20.208 95.1621 20.6143C95.6403 21.0163 95.8857 21.5833 95.8984 22.3154V25.4131C95.8984 26.0309 95.9852 26.5239 96.1587 26.8921V27H94.5845ZM92.8896 25.8892C93.1943 25.8892 93.48 25.8151 93.7466 25.667C94.0174 25.5189 94.2205 25.32 94.356 25.0703V23.7754H93.5244C92.9531 23.7754 92.5236 23.8748 92.2358 24.0737C91.9481 24.2726 91.8042 24.554 91.8042 24.918C91.8042 25.2142 91.9015 25.4512 92.0962 25.6289C92.2951 25.8024 92.5596 25.8892 92.8896 25.8892ZM97.6313 27V20.1318H100.418C101.357 20.1318 102.073 20.2969 102.563 20.627C103.054 20.9528 103.3 21.4225 103.3 22.0361C103.3 22.3535 103.2 22.6392 103.001 22.8931C102.807 23.1427 102.517 23.3353 102.132 23.4707C102.58 23.5638 102.936 23.7521 103.198 24.0356C103.461 24.3192 103.592 24.6535 103.592 25.0386C103.592 25.6776 103.355 26.1642 102.881 26.4985C102.411 26.8328 101.734 27 100.85 27H97.6313ZM99.1738 24.0737V25.7812H100.862C101.654 25.7812 102.049 25.4977 102.049 24.9307C102.049 24.3594 101.647 24.0737 100.843 24.0737H99.1738ZM99.1738 22.9692H100.443C101.319 22.9692 101.757 22.7111 101.757 22.1948C101.757 21.6532 101.343 21.3739 100.513 21.3569H99.1738V22.9692ZM110.257 21.3569H108.029V27H106.486V21.3569H104.284V20.1318H110.257V21.3569ZM110.809 23.5024C110.809 22.8296 110.942 22.2244 111.209 21.687C111.476 21.1453 111.85 20.7306 112.333 20.4429C112.815 20.1509 113.369 20.0049 113.996 20.0049C114.922 20.0049 115.674 20.3032 116.249 20.8999C116.829 21.4966 117.142 22.2879 117.188 23.2739L117.195 23.6357C117.195 24.3128 117.064 24.918 116.801 25.4512C116.543 25.9844 116.171 26.397 115.684 26.689C115.202 26.981 114.643 27.127 114.008 27.127C113.039 27.127 112.263 26.8053 111.679 26.1621C111.099 25.5146 110.809 24.6535 110.809 23.5786V23.5024ZM112.352 23.6357C112.352 24.3424 112.498 24.8968 112.79 25.2988C113.082 25.6966 113.488 25.8955 114.008 25.8955C114.529 25.8955 114.933 25.6924 115.221 25.2861C115.513 24.8799 115.659 24.2853 115.659 23.5024C115.659 22.8084 115.508 22.2583 115.208 21.8521C114.912 21.4458 114.508 21.2427 113.996 21.2427C113.492 21.2427 113.092 21.4437 112.796 21.8457C112.5 22.2435 112.352 22.8402 112.352 23.6357ZM122.578 25.1021L124.609 20.1318H126.539V27H124.996V22.4551L123.104 27H122.057L120.159 22.4297V27H118.617V20.1318H120.559L122.578 25.1021ZM132.378 27C132.311 26.8688 132.251 26.6551 132.201 26.3589C131.71 26.8709 131.109 27.127 130.398 27.127C129.708 27.127 129.145 26.9302 128.709 26.5366C128.274 26.1431 128.056 25.6564 128.056 25.0767C128.056 24.3446 128.326 23.7839 128.868 23.3945C129.414 23.001 130.193 22.8042 131.204 22.8042H132.15V22.3535C132.15 21.998 132.05 21.7145 131.852 21.5029C131.653 21.2871 131.35 21.1792 130.944 21.1792C130.593 21.1792 130.305 21.2681 130.081 21.4458C129.856 21.6193 129.744 21.8415 129.744 22.1123H128.202C128.202 21.7357 128.326 21.3844 128.576 21.0586C128.826 20.7285 129.164 20.4704 129.592 20.2842C130.023 20.098 130.504 20.0049 131.033 20.0049C131.837 20.0049 132.478 20.208 132.956 20.6143C133.434 21.0163 133.68 21.5833 133.692 22.3154V25.4131C133.692 26.0309 133.779 26.5239 133.953 26.8921V27H132.378ZM130.684 25.8892C130.988 25.8892 131.274 25.8151 131.541 25.667C131.811 25.5189 132.014 25.32 132.15 25.0703V23.7754H131.318C130.747 23.7754 130.318 23.8748 130.03 24.0737C129.742 24.2726 129.598 24.554 129.598 24.918C129.598 25.2142 129.695 25.4512 129.89 25.6289C130.089 25.8024 130.354 25.8892 130.684 25.8892ZM140.611 21.3569H138.383V27H136.841V21.3569H134.638V20.1318H140.611V21.3569ZM145.931 20.1318H147.467V27H145.931V22.417L143.239 27H141.703V20.1318H143.239V24.7148L145.931 20.1318ZM154.31 22.0107C154.31 22.3154 154.216 22.5968 154.03 22.855C153.848 23.1089 153.59 23.312 153.256 23.4644C154.043 23.7394 154.437 24.2705 154.437 25.0576C154.437 25.6882 154.181 26.1917 153.668 26.5684C153.156 26.9408 152.471 27.127 151.612 27.127C151.087 27.127 150.609 27.0402 150.177 26.8667C149.746 26.689 149.409 26.4393 149.168 26.1177C148.927 25.7918 148.806 25.4067 148.806 24.9624H150.342C150.342 25.2417 150.467 25.4766 150.717 25.667C150.966 25.8532 151.282 25.9463 151.663 25.9463C152.039 25.9463 152.338 25.8595 152.558 25.686C152.782 25.5083 152.894 25.2777 152.894 24.9941C152.894 24.6598 152.797 24.4186 152.602 24.2705C152.407 24.1224 152.107 24.0483 151.701 24.0483H150.596V22.9375H151.739C152.429 22.929 152.773 22.6455 152.773 22.0869C152.773 21.8076 152.674 21.5897 152.475 21.4331C152.276 21.2765 152.003 21.1982 151.656 21.1982C151.318 21.1982 151.032 21.2829 150.799 21.4521C150.567 21.6172 150.45 21.8267 150.45 22.0806H148.914C148.914 21.4754 149.168 20.9803 149.676 20.5952C150.184 20.2059 150.829 20.0112 151.612 20.0112C152.462 20.0112 153.125 20.1847 153.599 20.5317C154.073 20.8787 154.31 21.3717 154.31 22.0107ZM160.035 20.1318H161.571V27H160.035V22.417L157.344 27H155.808V20.1318H157.344V24.7148L160.035 20.1318ZM169.227 23.6357C169.227 24.6979 168.985 25.5464 168.503 26.1812C168.021 26.8117 167.373 27.127 166.561 27.127C165.807 27.127 165.204 26.8794 164.751 26.3843V29.6406H163.209V20.1318H164.631L164.694 20.8301C165.147 20.2799 165.763 20.0049 166.542 20.0049C167.379 20.0049 168.035 20.318 168.509 20.9443C168.987 21.5664 169.227 22.4318 169.227 23.5405V23.6357ZM167.69 23.5024C167.69 22.8169 167.553 22.2731 167.278 21.8711C167.007 21.4691 166.618 21.2681 166.11 21.2681C165.479 21.2681 165.027 21.5283 164.751 22.0488V25.0957C165.031 25.6289 165.488 25.8955 166.123 25.8955C166.613 25.8955 166.996 25.6987 167.271 25.3052C167.551 24.9074 167.69 24.3065 167.69 23.5024ZM170.249 23.5024C170.249 22.8296 170.382 22.2244 170.648 21.687C170.915 21.1453 171.29 20.7306 171.772 20.4429C172.254 20.1509 172.809 20.0049 173.435 20.0049C174.362 20.0049 175.113 20.3032 175.688 20.8999C176.268 21.4966 176.581 22.2879 176.628 23.2739L176.634 23.6357C176.634 24.3128 176.503 24.918 176.241 25.4512C175.983 25.9844 175.61 26.397 175.124 26.689C174.641 26.981 174.083 27.127 173.448 27.127C172.479 27.127 171.702 26.8053 171.118 26.1621C170.538 25.5146 170.249 24.6535 170.249 23.5786V23.5024ZM171.791 23.6357C171.791 24.3424 171.937 24.8968 172.229 25.2988C172.521 25.6966 172.927 25.8955 173.448 25.8955C173.968 25.8955 174.372 25.6924 174.66 25.2861C174.952 24.8799 175.098 24.2853 175.098 23.5024C175.098 22.8084 174.948 22.2583 174.647 21.8521C174.351 21.4458 173.947 21.2427 173.435 21.2427C172.931 21.2427 172.532 21.4437 172.235 21.8457C171.939 22.2435 171.791 22.8402 171.791 23.6357ZM178.056 27V20.1318H180.843C181.782 20.1318 182.497 20.2969 182.988 20.627C183.479 20.9528 183.725 21.4225 183.725 22.0361C183.725 22.3535 183.625 22.6392 183.426 22.8931C183.232 23.1427 182.942 23.3353 182.557 23.4707C183.005 23.5638 183.361 23.7521 183.623 24.0356C183.885 24.3192 184.017 24.6535 184.017 25.0386C184.017 25.6776 183.78 26.1642 183.306 26.4985C182.836 26.8328 182.159 27 181.274 27H178.056ZM179.599 24.0737V25.7812H181.287C182.078 25.7812 182.474 25.4977 182.474 24.9307C182.474 24.3594 182.072 24.0737 181.268 24.0737H179.599ZM179.599 22.9692H180.868C181.744 22.9692 182.182 22.7111 182.182 22.1948C182.182 21.6532 181.767 21.3739 180.938 21.3569H179.599V22.9692ZM189.457 27C189.389 26.8688 189.33 26.6551 189.279 26.3589C188.788 26.8709 188.187 27.127 187.476 27.127C186.786 27.127 186.223 26.9302 185.788 26.5366C185.352 26.1431 185.134 25.6564 185.134 25.0767C185.134 24.3446 185.405 23.7839 185.946 23.3945C186.492 23.001 187.271 22.8042 188.282 22.8042H189.228V22.3535C189.228 21.998 189.129 21.7145 188.93 21.5029C188.731 21.2871 188.428 21.1792 188.022 21.1792C187.671 21.1792 187.383 21.2681 187.159 21.4458C186.934 21.6193 186.822 21.8415 186.822 22.1123H185.28C185.28 21.7357 185.405 21.3844 185.654 21.0586C185.904 20.7285 186.243 20.4704 186.67 20.2842C187.102 20.098 187.582 20.0049 188.111 20.0049C188.915 20.0049 189.556 20.208 190.034 20.6143C190.512 21.0163 190.758 21.5833 190.771 22.3154V25.4131C190.771 26.0309 190.857 26.5239 191.031 26.8921V27H189.457ZM187.762 25.8892C188.066 25.8892 188.352 25.8151 188.619 25.667C188.889 25.5189 189.093 25.32 189.228 25.0703V23.7754H188.396C187.825 23.7754 187.396 23.8748 187.108 24.0737C186.82 24.2726 186.676 24.554 186.676 24.918C186.676 25.2142 186.774 25.4512 186.968 25.6289C187.167 25.8024 187.432 25.8892 187.762 25.8892ZM197.689 21.3569H195.461V27H193.919V21.3569H191.716V20.1318H197.689V21.3569ZM200.381 22.3154H201.892C202.454 22.3154 202.945 22.4128 203.364 22.6074C203.783 22.8021 204.101 23.075 204.316 23.4263C204.536 23.7775 204.646 24.1859 204.646 24.6514C204.646 25.3581 204.397 25.9251 203.897 26.3525C203.398 26.7799 202.734 26.9958 201.904 27H198.838V20.1318H200.381V22.3154ZM200.381 23.5532V25.7686H201.885C202.262 25.7686 202.558 25.6755 202.774 25.4893C202.994 25.2988 203.104 25.0301 203.104 24.6831C203.104 24.3361 202.996 24.0632 202.78 23.8643C202.569 23.6611 202.281 23.5575 201.917 23.5532H200.381ZM207.516 24.2769H206.189L206.043 17.7578H207.668L207.516 24.2769ZM205.999 26.27C205.999 26.0288 206.077 25.8299 206.233 25.6733C206.39 25.5125 206.604 25.4321 206.875 25.4321C207.145 25.4321 207.359 25.5125 207.516 25.6733C207.672 25.8299 207.75 26.0288 207.75 26.27C207.75 26.5028 207.674 26.6974 207.522 26.854C207.37 27.0106 207.154 27.0889 206.875 27.0889C206.595 27.0889 206.379 27.0106 206.227 26.854C206.075 26.6974 205.999 26.5028 205.999 26.27Z" fill="white"/>
    <path d="M27.2324 47.6738V48.6992H27.0957C25.3965 48.6992 24.0586 49.2005 23.082 50.2031C22.1055 51.1992 21.5651 52.5859 21.4609 54.3633C21.8516 53.8229 22.3496 53.4062 22.9551 53.1133C23.5605 52.8138 24.2376 52.6641 24.9863 52.6641C26.2363 52.6641 27.2292 53.097 27.9648 53.9629C28.707 54.8223 29.0781 55.9486 29.0781 57.3418C29.0781 58.2663 28.9056 59.0996 28.5605 59.8418C28.2155 60.584 27.7207 61.1634 27.0762 61.5801C26.4316 61.9902 25.696 62.1953 24.8691 62.1953C23.5085 62.1953 22.4017 61.7038 21.5488 60.7207C20.696 59.7311 20.2695 58.4551 20.2695 56.8926V55.7207C20.2695 53.1751 20.849 51.2057 22.0078 49.8125C23.1667 48.4128 24.8105 47.6999 26.9395 47.6738H27.2324ZM24.8008 53.6699C24.0586 53.6699 23.3652 53.8913 22.7207 54.334C22.0827 54.7702 21.6562 55.3268 21.4414 56.0039V57C21.4414 58.237 21.7572 59.2461 22.3887 60.0273C23.0267 60.8086 23.8535 61.1992 24.8691 61.1992C25.7806 61.1992 26.5163 60.8379 27.0762 60.1152C27.6426 59.3926 27.9258 58.4811 27.9258 57.3809C27.9258 56.2611 27.6426 55.3626 27.0762 54.6855C26.5163 54.0085 25.7578 53.6699 24.8008 53.6699ZM44.8691 56.0723C44.8691 58.0775 44.5013 59.6009 43.7656 60.6426C43.0299 61.6777 41.946 62.1953 40.5137 62.1953C39.1074 62.1953 38.0299 61.6875 37.2812 60.6719C36.5326 59.6497 36.1484 58.1654 36.1289 56.2188V53.6699C36.1289 51.6712 36.5 50.1576 37.2422 49.1289C37.9844 48.1003 39.0684 47.5859 40.4941 47.5859C41.9004 47.5859 42.9746 48.084 43.7168 49.0801C44.459 50.0697 44.8431 51.5312 44.8691 53.4648V56.0723ZM43.6973 53.5234C43.6973 51.8958 43.4303 50.6654 42.8965 49.832C42.3691 48.9987 41.5684 48.582 40.4941 48.582C39.4395 48.582 38.6452 48.9889 38.1113 49.8027C37.5775 50.6165 37.304 51.8177 37.291 53.4062V56.1992C37.291 57.8203 37.5645 59.0605 38.1113 59.9199C38.6647 60.7793 39.4655 61.209 40.5137 61.209C41.5553 61.209 42.3431 60.7891 42.877 59.9492C43.4173 59.1094 43.6908 57.8789 43.6973 56.2578V53.5234ZM55.9629 56.0723C55.9629 58.0775 55.5951 59.6009 54.8594 60.6426C54.1237 61.6777 53.0397 62.1953 51.6074 62.1953C50.2012 62.1953 49.1237 61.6875 48.375 60.6719C47.6263 59.6497 47.2422 58.1654 47.2227 56.2188V53.6699C47.2227 51.6712 47.5938 50.1576 48.3359 49.1289C49.0781 48.1003 50.1621 47.5859 51.5879 47.5859C52.9941 47.5859 54.0684 48.084 54.8105 49.0801C55.5527 50.0697 55.9368 51.5312 55.9629 53.4648V56.0723ZM54.791 53.5234C54.791 51.8958 54.5241 50.6654 53.9902 49.832C53.4629 48.9987 52.6621 48.582 51.5879 48.582C50.5332 48.582 49.7389 48.9889 49.2051 49.8027C48.6712 50.6165 48.3978 51.8177 48.3848 53.4062V56.1992C48.3848 57.8203 48.6582 59.0605 49.2051 59.9199C49.7585 60.7793 50.5592 61.209 51.6074 61.209C52.6491 61.209 53.4368 60.7891 53.9707 59.9492C54.5111 59.1094 54.7845 57.8789 54.791 56.2578V53.5234ZM67.0566 56.0723C67.0566 58.0775 66.6888 59.6009 65.9531 60.6426C65.2174 61.6777 64.1335 62.1953 62.7012 62.1953C61.2949 62.1953 60.2174 61.6875 59.4688 60.6719C58.7201 59.6497 58.3359 58.1654 58.3164 56.2188V53.6699C58.3164 51.6712 58.6875 50.1576 59.4297 49.1289C60.1719 48.1003 61.2559 47.5859 62.6816 47.5859C64.0879 47.5859 65.1621 48.084 65.9043 49.0801C66.6465 50.0697 67.0306 51.5312 67.0566 53.4648V56.0723ZM65.8848 53.5234C65.8848 51.8958 65.6178 50.6654 65.084 49.832C64.5566 48.9987 63.7559 48.582 62.6816 48.582C61.627 48.582 60.8327 48.9889 60.2988 49.8027C59.765 50.6165 59.4915 51.8177 59.4785 53.4062V56.1992C59.4785 57.8203 59.752 59.0605 60.2988 59.9199C60.8522 60.7793 61.653 61.209 62.7012 61.209C63.7428 61.209 64.5306 60.7891 65.0645 59.9492C65.6048 59.1094 65.8783 57.8789 65.8848 56.2578V53.5234ZM80.2207 58.6895H76.627V62H75.4355V58.6895H73.4434V57.6641H75.4355V56.209H73.4434V55.1934H75.4355V47.7812H80.2793C81.7767 47.7812 82.9453 48.1621 83.7852 48.9238C84.6315 49.679 85.0547 50.7077 85.0547 52.0098C85.0547 53.3379 84.6445 54.3698 83.8242 55.1055C83.0039 55.8346 81.832 56.2025 80.3086 56.209H76.627V57.6641H80.2207V58.6895ZM76.627 55.1934H80.2793C81.4121 55.1934 82.291 54.9199 82.916 54.373C83.541 53.8197 83.8535 53.0384 83.8535 52.0293C83.8535 51.0527 83.5475 50.278 82.9355 49.7051C82.3301 49.1322 81.4935 48.8327 80.4258 48.8066H76.627V55.1934ZM87.291 63.2207H86.2266L92.1641 47.7812H93.2188L87.291 63.2207ZM101.256 60.418L105.455 51.4336H106.9V62H105.729V53.3281L101.666 62H100.836L96.6953 53.1328V62H95.5332V51.4336H97.0664L101.256 60.418ZM114.127 62.1953C113.229 62.1953 112.415 61.974 111.686 61.5312C110.963 61.0885 110.4 60.4733 109.996 59.6855C109.592 58.8913 109.391 58.0026 109.391 57.0195V56.5996C109.391 55.584 109.586 54.6693 109.977 53.8555C110.374 53.0417 110.924 52.4036 111.627 51.9414C112.33 51.4727 113.092 51.2383 113.912 51.2383C115.195 51.2383 116.21 51.6777 116.959 52.5566C117.714 53.429 118.092 54.6237 118.092 56.1406V56.7949H110.553V57.0195C110.553 58.2174 110.895 59.2168 111.578 60.0176C112.268 60.8118 113.134 61.209 114.176 61.209C114.801 61.209 115.351 61.0951 115.826 60.8672C116.308 60.6393 116.744 60.2747 117.135 59.7734L117.867 60.3301C117.008 61.5736 115.761 62.1953 114.127 62.1953ZM113.912 52.2344C113.033 52.2344 112.291 52.5566 111.686 53.2012C111.087 53.8457 110.722 54.7116 110.592 55.7988H116.93V55.6719C116.897 54.6562 116.607 53.8294 116.061 53.1914C115.514 52.5534 114.798 52.2344 113.912 52.2344ZM124.273 61.209C125.087 61.209 125.768 60.9811 126.314 60.5254C126.868 60.0632 127.167 59.4674 127.213 58.7383H128.336C128.303 59.3828 128.102 59.972 127.73 60.5059C127.359 61.0332 126.865 61.4466 126.246 61.7461C125.634 62.0456 124.977 62.1953 124.273 62.1953C122.887 62.1953 121.786 61.7135 120.973 60.75C120.165 59.7865 119.762 58.4909 119.762 56.8633V56.5117C119.762 55.4701 119.944 54.5488 120.309 53.748C120.673 52.9473 121.194 52.3288 121.871 51.8926C122.555 51.4564 123.352 51.2383 124.264 51.2383C125.423 51.2383 126.376 51.5833 127.125 52.2734C127.88 52.9635 128.284 53.8717 128.336 54.998H127.213C127.161 54.1712 126.861 53.5039 126.314 52.9961C125.774 52.4883 125.09 52.2344 124.264 52.2344C123.209 52.2344 122.389 52.6152 121.803 53.377C121.223 54.1387 120.934 55.2064 120.934 56.5801V56.9219C120.934 58.2695 121.223 59.321 121.803 60.0762C122.389 60.8314 123.212 61.209 124.273 61.209Z" fill="white"/>
    <defs>
        <linearGradient id="paint0_linear" x1="120" y1="0" x2="120" y2="200" gradientUnits="userSpaceOnUse">
            <stop stop-color="#15B759"/>
            <stop offset="1" stop-color="#219653"/>
        </linearGradient>
    </defs>
</svg>
