<svg width="25" height="25" viewBox="0 0 25 25" fill="none" xmlns="http://www.w3.org/2000/svg">
<path d="M23.7676 9.19266L23.7993 9.1935L23.8308 9.19032C23.8564 9.18776 23.8778 9.18659 23.8968 9.18659C24.1921 9.18659 24.5 9.45963 24.5 9.8845C24.5 10.1475 24.3748 10.364 24.2074 10.4822L24.1959 10.4902L24.1849 10.499L18.1166 15.3115L17.8544 15.5195L17.9467 15.8411L20.1118 23.391L20.1233 23.4311L20.1413 23.4688C20.1885 23.5674 20.216 23.6805 20.216 23.8015C20.216 24.2273 19.9078 24.5 19.6133 24.5C19.4843 24.5 19.3607 24.4522 19.2554 24.3615L19.2379 24.3464L19.2191 24.333L12.7907 19.7546L12.5006 19.548L12.2106 19.7546L5.78184 24.333L5.76269 24.3466L5.74492 24.362C5.64088 24.4519 5.51659 24.5 5.38762 24.5C5.09245 24.5 4.78439 24.2271 4.78439 23.8015C4.78439 23.6796 4.81205 23.5666 4.85861 23.4696L4.87688 23.4316L4.88851 23.391L7.05386 15.8411L7.14612 15.5195L6.88392 15.3115L0.815447 10.4989L0.804069 10.4899L0.792187 10.4816C0.625108 10.3642 0.5 10.1485 0.5 9.8845C0.5 9.45869 0.808272 9.1863 1.10219 9.18659H1.10269C1.12435 9.18659 1.1449 9.18773 1.16369 9.1898L1.19768 9.19356L1.23187 9.19266L8.85054 8.99109L9.19811 8.9819L9.31048 8.65287L11.9138 1.03048L11.9197 1.01338L11.9243 0.995908C12.0066 0.682424 12.2542 0.5 12.5001 0.5C12.7456 0.5 12.9934 0.682586 13.0753 0.995422L13.0799 1.01313L13.0858 1.03045L15.6886 8.65284L15.801 8.9819L16.1486 8.99109L23.7676 9.19266Z" transform="translate(25) scale(-1 1)" fill="#FFC107"/>
<path d="M23.7676 9.19266L23.7993 9.1935L23.8308 9.19032C23.8564 9.18776 23.8778 9.18659 23.8968 9.18659C24.1921 9.18659 24.5 9.45963 24.5 9.8845C24.5 10.1475 24.3748 10.364 24.2074 10.4822L24.1959 10.4902L24.1849 10.499L18.1166 15.3115L17.8544 15.5195L17.9467 15.8411L20.1118 23.391L20.1233 23.4311L20.1413 23.4688C20.1885 23.5674 20.216 23.6805 20.216 23.8015C20.216 24.2273 19.9078 24.5 19.6133 24.5C19.4843 24.5 19.3607 24.4522 19.2554 24.3615L19.2379 24.3464L19.2191 24.333L12.7907 19.7546L12.5006 19.548L12.2106 19.7546L5.78184 24.333L5.76269 24.3466L5.74492 24.362C5.64088 24.4519 5.51659 24.5 5.38762 24.5C5.09245 24.5 4.78439 24.2271 4.78439 23.8015C4.78439 23.6796 4.81205 23.5666 4.85861 23.4696L4.87688 23.4316L4.88851 23.391L7.05386 15.8411L7.14612 15.5195L6.88392 15.3115L0.815447 10.4989L0.804069 10.4899L0.792187 10.4816C0.625108 10.3642 0.5 10.1485 0.5 9.8845C0.5 9.45869 0.808272 9.1863 1.10219 9.18659H1.10269C1.12435 9.18659 1.1449 9.18773 1.16369 9.1898L1.19768 9.19356L1.23187 9.19266L8.85054 8.99109L9.19811 8.9819L9.31048 8.65287L11.9138 1.03048L11.9197 1.01338L11.9243 0.995908C12.0066 0.682424 12.2542 0.5 12.5001 0.5C12.7456 0.5 12.9934 0.682586 13.0753 0.995422L13.0799 1.01313L13.0858 1.03045L15.6886 8.65284L15.801 8.9819L16.1486 8.99109L23.7676 9.19266Z" transform="translate(25) scale(-1 1)" stroke="white"/>
<path d="M23.7676 9.19266L23.7993 9.1935L23.8308 9.19032C23.8564 9.18776 23.8778 9.18659 23.8968 9.18659C24.1921 9.18659 24.5 9.45963 24.5 9.8845C24.5 10.1475 24.3748 10.364 24.2074 10.4822L24.1959 10.4902L24.1849 10.499L18.1166 15.3115L17.8544 15.5195L17.9467 15.8411L20.1118 23.391L20.1233 23.4311L20.1413 23.4688C20.1885 23.5674 20.216 23.6805 20.216 23.8015C20.216 24.2273 19.9078 24.5 19.6133 24.5C19.4843 24.5 19.3607 24.4522 19.2554 24.3615L19.2379 24.3464L19.2191 24.333L12.7907 19.7546L12.5006 19.548L12.2106 19.7546L5.78184 24.333L5.76269 24.3466L5.74492 24.362C5.64088 24.4519 5.51659 24.5 5.38762 24.5C5.09245 24.5 4.78439 24.2271 4.78439 23.8015C4.78439 23.6796 4.81205 23.5666 4.85861 23.4696L4.87688 23.4316L4.88851 23.391L7.05386 15.8411L7.14612 15.5195L6.88392 15.3115L0.815447 10.4989L0.804069 10.4899L0.792187 10.4816C0.625108 10.3642 0.5 10.1485 0.5 9.8845C0.5 9.45869 0.808272 9.1863 1.10219 9.18659H1.10269C1.12435 9.18659 1.1449 9.18773 1.16369 9.1898L1.19768 9.19356L1.23187 9.19266L8.85054 8.99109L9.19811 8.9819L9.31048 8.65287L11.9138 1.03048L11.9197 1.01338L11.9243 0.995908C12.0066 0.682424 12.2542 0.5 12.5001 0.5C12.7456 0.5 12.9934 0.682586 13.0753 0.995422L13.0799 1.01313L13.0858 1.03045L15.6886 8.65284L15.801 8.9819L16.1486 8.99109L23.7676 9.19266Z" transform="translate(25) scale(-1 1)" stroke="url(#paint0_linear)"/>
<defs>
<linearGradient id="paint0_linear" x2="1" gradientUnits="userSpaceOnUse" gradientTransform="translate(25) scale(25) rotate(90)">
<stop stop-color="white"/>
<stop offset="1" stop-color="white" stop-opacity="0"/>
</linearGradient>
</defs>
</svg>
