<svg width="60" height="27" viewBox="0 0 60 27" fill="none" xmlns="http://www.w3.org/2000/svg">
<circle cx="12.5" cy="12.5" r="12.5" transform="translate(0 2)" fill="#F43232"/>
<rect width="15" height="5" transform="translate(5 12)" fill="white"/>
<path d="M25 9.8845C25 9.22322 24.5064 8.68659 23.8968 8.68659C23.8575 8.68659 23.8189 8.68901 23.7808 8.69283L16.1618 8.49127L13.559 0.868881C13.4278 0.367286 13.0038 0 12.5001 0C11.9959 0 11.5724 0.367286 11.4407 0.868881L8.83732 8.49127L1.21865 8.69283C1.18042 8.6886 1.14146 8.68659 1.10269 8.68659C0.493635 8.68599 0 9.22282 0 9.8845C0 10.3074 0.201224 10.6775 0.504764 10.8907L6.57324 15.7033L4.40789 23.2532C4.32927 23.4169 4.28439 23.6038 4.28439 23.8015C4.28439 24.4634 4.77803 25 5.38762 25C5.64575 25 5.88413 24.9025 6.07189 24.7402L12.5006 20.1619L18.929 24.7402C19.1173 24.9025 19.3546 25 19.6133 25C20.2223 25 20.716 24.4634 20.716 23.8015C20.716 23.6044 20.6711 23.4177 20.5925 23.2532L18.4273 15.7033L24.4956 10.8907C24.7984 10.6771 25 10.3068 25 9.8845Z" transform="translate(60) scale(-1 1)" fill="#FFC107"/>
</svg>
