<svg width="37" height="37" viewBox="0 0 37 37" fill="none" xmlns="http://www.w3.org/2000/svg">
<path d="M17.5 35C7.85256 35 4.5646e-06 27.1474 4.5646e-06 17.5C4.5646e-06 7.85256 7.85256 4.5646e-06 17.5 4.5646e-06C27.1474 4.5646e-06 35 7.85256 35 17.5C35 27.1474 27.1474 35 17.5 35ZM17.5 1.86966C8.89957 1.86966 1.86966 8.89957 1.86966 17.5C1.86966 26.1004 8.89957 33.1303 17.5 33.1303C26.1004 33.1303 33.1303 26.1004 33.1303 17.5C33.1303 8.89957 26.1004 1.86966 17.5 1.86966Z" transform="translate(1 1)" fill="#27AE60" stroke="#27AE60"/>
<circle cx="16.8" cy="16.8" r="16.8" transform="translate(1 2.40039)" fill="#27AE60"/>
<path d="M8.89958 14.4338L-9.12919e-06 5.45941L1.34616 4.11325L8.89958 11.7415L20.641 2.2823e-06L21.9872 1.34616L8.89958 14.4338Z" transform="translate(7.50684 11.6191)" fill="#F2F2F2" stroke="#F2F2F2"/>
</svg>
