<svg width="37" height="37" viewBox="0 0 37 37" fill="none" xmlns="http://www.w3.org/2000/svg">
    <path d="M17.5 35C7.83473 35 8.9382e-06 27.1653 8.9382e-06 17.5C8.9382e-06 7.83473 7.83473 4.4691e-06 17.5 4.4691e-06C27.1653 4.4691e-06 35 7.83473 35 17.5C35 27.0921 27.1653 35 17.5 35ZM17.5 1.83055C8.93306 1.83055 1.90376 8.85983 1.90376 17.4268C1.90376 25.9937 8.93306 33.023 17.5 33.023C26.0669 33.023 33.0962 25.9937 33.0962 17.4268C33.0962 8.85983 26.0669 1.83055 17.5 1.83055Z" transform="translate(1 1)" fill="#828282" stroke="#828282"/>
    <circle cx="16.8" cy="16.8" r="16.8" transform="translate(2.40039 2.40039)" fill="#828282"/>
    <path d="M1.39122 17.9393L-8.9382e-06 16.5481L16.5481 8.9382e-06L17.9393 1.39122L1.39122 17.9393Z" transform="translate(9.49414 9.49414)" fill="#F2F2F2" stroke="#F2F2F2"/>
    <path d="M16.5481 17.9393L0 1.39121L1.39123 0L17.9393 16.5481L16.5481 17.9393Z" transform="translate(9.49316 9.49414)" fill="#F2F2F2" stroke="#F2F2F2"/>
</svg>
