<svg width="180" height="180" viewBox="0 0 180 180" fill="none" xmlns="http://www.w3.org/2000/svg">
    <circle cx="90" cy="90" r="90" fill="#E9EDEE"/>
    <path d="M136.544 92.7109C134.454 87.9057 130.451 84.1756 125.832 84.1098H77.3754C72.5363 84.0659 68.3132 87.5546 66.2676 92.7109H136.544Z" fill="#BFC5C7"/>
    <path d="M65.168 111.186C66.3557 118.185 71.2608 123.956 77.1336 123.999H125.59C131.683 124.065 136.764 118.514 137.82 111.186H65.168Z" fill="#BFC5C7"/>
    <path d="M61.7582 101.97C66.2673 101.97 66.2673 98.7886 70.7544 98.7886C75.2635 98.7886 75.2635 101.97 79.7506 101.97C84.2597 101.97 84.2597 98.7886 88.7468 98.7886C93.2559 98.7886 93.2559 101.97 97.7431 101.97C102.252 101.97 102.252 98.7886 106.739 98.7886C111.248 98.7886 111.248 101.97 115.736 101.97C120.245 101.97 120.245 98.7886 124.732 98.7886C129.241 98.7886 129.241 101.97 133.728 101.97C138.237 101.97 138.237 98.7886 142.724 98.7886C143.054 98.7886 143.362 98.8106 143.626 98.8325C142.9 96.5287 141.14 94.8831 139.051 94.8831H65.4094C62.704 94.8831 60.4824 97.6696 60.4824 101.114V101.86C60.8783 101.926 61.2963 101.97 61.7582 101.97Z" fill="#BFC5C7"/>
    <path d="M142.725 102.277C138.216 102.277 138.216 105.459 133.729 105.459C129.22 105.459 129.22 102.277 124.733 102.277C120.224 102.277 120.224 105.459 115.737 105.459C111.227 105.459 111.227 102.277 106.74 102.277C102.231 102.277 102.231 105.459 97.7441 105.459C93.235 105.459 93.235 102.277 88.7479 102.277C84.2388 102.277 84.2388 105.459 79.7517 105.459C75.2426 105.459 75.2426 102.277 70.7555 102.277C66.2464 102.277 66.2464 105.459 61.7592 105.459C61.4293 105.459 61.1214 105.437 60.8574 105.415C61.5833 107.719 63.3429 109.365 65.4325 109.365H139.074C141.779 109.365 144.001 106.578 144.001 103.133V102.387C143.605 102.299 143.187 102.277 142.725 102.277Z" fill="#BFC5C7"/>
    <path fill-rule="evenodd" clip-rule="evenodd" d="M60.2188 103.528C59.405 103.396 58.8111 102.694 58.8111 101.86V101.114C58.8111 97.0552 61.3626 93.6982 64.6619 93.2374C64.53 92.8644 64.552 92.4475 64.6839 92.0745C67.0595 86.1284 71.8765 82.4203 77.2654 82.4203L78.9151 68.268C78.9151 68.2021 78.9151 68.1363 78.9151 68.0924H80.9827V65.3498H78.5632V63.8138H50.4967L47.6373 54.4887C46.9994 52.4043 45.1078 51 42.9302 51H34V52.3384H42.9302C44.5139 52.3384 45.8777 53.3477 46.3616 54.8617L49.089 63.7919H44.7339V65.3278H42.3144V68.0705H44.3819C44.3819 68.1363 44.3819 68.1802 44.3819 68.246L50.5627 121.542C50.6947 122.902 51.8605 123.934 53.2242 123.934H61.5386H61.7365H70.0729C70.4248 123.934 70.7547 123.868 71.0627 123.736C67.3014 121.344 64.442 116.868 63.4962 111.383C63.4522 111.142 63.4742 110.878 63.5402 110.637C61.5826 109.957 59.9769 108.223 59.229 105.832C59.053 105.283 59.185 104.713 59.537 104.274" fill="#BFC5C7"/>
</svg>
