<svg width="180" height="180" viewBox="0 0 180 180" fill="none" xmlns="http://www.w3.org/2000/svg">
    <circle cx="90" cy="90" r="90" fill="#E9EDEE"/>
    <path d="M101.24 109.288C100.879 105.318 101.017 102.548 101.017 98.9204C102.824 97.9773 106.062 91.9639 106.609 86.8837C108.03 86.768 110.27 85.389 110.926 79.9443C111.28 77.0214 109.874 75.3764 109.017 74.8593C111.329 67.9421 116.131 46.5429 100.136 44.3316C98.4901 41.4553 94.2747 40 88.797 40C66.8812 40.4014 64.2376 56.4643 69.0421 74.8593C68.1881 75.3764 66.7822 77.0214 67.1337 79.9443C67.7921 85.389 70.0297 86.768 71.4505 86.8837C71.9951 91.9614 75.3614 97.9773 77.1733 98.9204C77.1733 102.548 77.3094 105.318 76.948 109.288C72.6114 120.886 43.3515 117.631 42 140H136.059C134.71 117.631 105.577 120.886 101.24 109.288Z" fill="#BFC5C7"/>
</svg>
