<svg width="21" height="21" viewBox="0 0 21 21" fill="none" xmlns="http://www.w3.org/2000/svg">
    <path d="M9.6 19.2C14.9019 19.2 19.2 14.9019 19.2 9.6C19.2 4.29807 14.9019 0 9.6 0C4.29807 0 0 4.29807 0 9.6C0 14.9019 4.29807 19.2 9.6 19.2Z" transform="translate(20.2002 1) scale(-1 1)" stroke="#828282" stroke-miterlimit="10" stroke-linecap="round"/>
    <path d="M8.01684 11.2999L8.02286 11.3664L8.04611 11.4289C8.22312 11.9054 8.57381 12.2417 8.96171 12.4962C9.34533 12.7479 9.80556 12.9452 10.2547 13.1256C10.3601 13.168 10.4653 13.2096 10.5698 13.251C11.1933 13.498 11.7939 13.7359 12.3031 14.0615C12.2107 14.1302 12.1049 14.2057 11.986 14.2866C11.5934 14.5537 11.0868 14.8603 10.5144 15.1499C9.3573 15.7354 7.9872 16.2228 6.7664 16.2228C4.45653 16.2228 2.26107 15.3357 0.779161 14.0658C1.29206 13.738 1.89694 13.4993 2.52439 13.2517C2.63295 13.2089 2.7422 13.1658 2.85175 13.1219C3.3009 12.942 3.76055 12.7451 4.14366 12.4939C4.53096 12.2399 4.88106 11.9043 5.05783 11.4291L5.08113 11.3665L5.08716 11.2999C5.13513 10.7703 5.13147 10.3564 5.12768 9.92815C5.12665 9.81099 5.1256 9.69276 5.1256 9.5708V9.26811L4.86955 9.13414C4.86962 9.13414 4.86966 9.13413 4.86968 9.13411C4.87047 9.13306 4.83587 9.10546 4.77145 9.01866C4.69874 8.9207 4.61521 8.78434 4.53346 8.62113C4.36763 8.29007 4.2338 7.89827 4.19798 7.56255L4.15407 7.15104L3.75133 7.11806C3.74307 7.1135 3.72468 7.1005 3.69931 7.06813C3.64157 6.99448 3.54611 6.8149 3.49964 6.42886C3.46946 6.17613 3.57627 6.08865 3.57528 6.08741C3.57521 6.08732 3.57455 6.08769 3.57323 6.08849L3.88898 5.8963L3.79553 5.53666C3.4153 4.07332 3.36325 2.81166 3.74661 1.9356C3.93216 1.51157 4.22235 1.17048 4.64992 0.926218C5.08318 0.6787 5.68434 0.515744 6.50856 0.500002C6.90898 0.500411 7.23588 0.554654 7.47726 0.644924C7.71998 0.735691 7.8442 0.849671 7.90189 0.950988L8.02371 1.16495L8.26758 1.19884C8.7882 1.27119 9.09886 1.4889 9.2985 1.76495C9.50991 2.05728 9.62773 2.4594 9.66492 2.93531C9.73979 3.89332 9.475 4.96972 9.29714 5.50464L9.17134 5.88297L9.51034 6.08872C9.5091 6.08797 9.50848 6.08762 9.50841 6.08771C9.50742 6.08896 9.61401 6.17612 9.58359 6.4286L9.58355 6.4289C9.53728 6.81494 9.44181 6.99446 9.3841 7.06806C9.35864 7.10052 9.34019 7.11352 9.33194 7.11806L8.92931 7.15103L8.88525 7.56234C8.84887 7.90188 8.71829 8.29571 8.55736 8.62641C8.47788 8.78974 8.39678 8.92566 8.32615 9.02295C8.26521 9.10686 8.23218 9.13403 8.23242 9.13543L7.9788 9.26849V9.5708C7.9788 9.69385 7.97772 9.81314 7.97664 9.9314C7.97276 10.3583 7.969 10.7717 8.01684 11.2999ZM3.75618 7.1202C3.75616 7.12028 3.75525 7.12003 3.75353 7.1192C3.75534 7.11971 3.7562 7.12012 3.75618 7.1202ZM9.32712 7.12018C9.32709 7.1201 9.32795 7.11969 9.32976 7.11918C9.32804 7.12 9.32714 7.12025 9.32712 7.12018Z" transform="translate(17.1416 3.55664) scale(-1 1)" fill="#828282" stroke="#828282"/>
</svg>
